<svg width="14" height="14" viewBox="0 0 14 14" fill="none" xmlns="http://www.w3.org/2000/svg">
<path d="M6.9617 1.75699V0.107678C6.9617 0.0160499 7.07623 -0.0326278 7.15354 0.02464L10.5438 2.51579C10.6011 2.55874 10.6011 2.64178 10.5438 2.68473L7.15354 5.17588C7.07623 5.23315 6.9617 5.1816 6.9617 5.09284V3.44639C4.44765 3.48648 2.43469 5.62257 2.60649 8.18244C2.75253 10.3815 4.545 12.1654 6.74408 12.3057C9.07487 12.4546 11.0563 10.7881 11.4114 8.58617C11.4773 8.17671 11.8323 7.87892 12.2475 7.87892C12.76 7.87892 13.1581 8.3342 13.0779 8.83815C12.5797 11.9793 9.68477 14.3359 6.32889 13.9608C3.52278 13.6458 1.2693 11.4009 0.95146 8.59477C0.530543 4.9239 3.38247 1.79708 6.9617 1.75699Z" fill="white"/>
</svg>
