<svg width="24" height="24" viewBox="0 0 24 24" fill="none" xmlns="http://www.w3.org/2000/svg">
<path d="M0 12C0 18.6274 5.37258 24 12 24C18.6274 24 24 18.6274 24 12C24 5.37258 18.6274 0 12 0C5.37258 0 0 5.37258 0 12Z" fill="#1B6FB7"/>
<path d="M8.17588 17.3334H10.0987L10.0861 16.1832H8.17588C7.51806 16.1832 6.96989 16.0245 6.53135 15.707C6.09281 15.3847 5.7639 14.9354 5.54463 14.3591C5.32114 13.7779 5.2094 13.099 5.2094 12.3224V11.6704C5.2094 11.0599 5.27265 10.5178 5.39915 10.044C5.52565 9.56541 5.71119 9.16247 5.95576 8.83525C6.20033 8.50313 6.49972 8.25161 6.85393 8.08067C7.20392 7.90973 7.60662 7.82426 8.06202 7.82426H10.1367V6.66675H8.06202C7.45903 6.66675 6.90874 6.78396 6.41117 7.0184C5.91359 7.24794 5.48559 7.5825 5.12717 8.02206C4.76453 8.45674 4.48623 8.98421 4.29226 9.60448C4.09829 10.2199 4.0013 10.9134 4.0013 11.6851V12.3224C4.0013 13.0941 4.09829 13.7901 4.29226 14.4103C4.48623 15.0257 4.76664 15.5508 5.1335 15.9854C5.49614 16.4201 5.93468 16.7547 6.44912 16.9891C6.95935 17.2186 7.53493 17.3334 8.17588 17.3334ZM9.44722 6.66675V17.3334H10.668V6.66675H9.44722Z" fill="white"/>
<path d="M20 8L12 8L12 8.8L20 8.8L20 8Z" fill="white"/>
<path d="M20 10.6667L12 10.6667L12 11.4667L20 11.4667L20 10.6667Z" fill="white"/>
<path d="M20 13.3333L12 13.3333L12 14.1333L20 14.1333L20 13.3333Z" fill="white"/>
<path d="M20 16L12 16L12 16.8L20 16.8L20 16Z" fill="white"/>
</svg>
