<svg width="24" height="24" viewBox="0 0 24 24" fill="none" xmlns="http://www.w3.org/2000/svg">
<path d="M24 12C24 18.6274 18.6274 24 12 24C5.37258 24 0 18.6274 0 12C0 5.37258 5.37258 0 12 0C18.6274 0 24 5.37258 24 12Z" fill="#1B6FB7"/>
<path d="M6 11.5L8 6.5L16 7L18 11.5H6Z" fill="#F97830"/>
<path d="M20.8751 9.58671C20.8323 9.46066 20.6807 9.36263 20.554 9.36263C20.0058 9.36263 19.4576 9.36263 18.9093 9.36263C18.7827 9.36263 18.631 9.46066 18.5882 9.58671C18.5463 9.71008 18.515 9.82015 18.4942 9.92368L17.3956 6.84794C17.2144 6.34075 16.7344 6 16.2015 6H7.79859C7.26563 6 6.78581 6.34075 6.60451 6.84803L5.5058 9.92405C5.48495 9.82043 5.45366 9.71022 5.41175 9.58671C5.36897 9.46066 5.21727 9.36263 5.0907 9.36263C4.54246 9.36263 3.99422 9.36263 3.44594 9.36263C3.31937 9.36263 3.16767 9.46066 3.12489 9.58671C2.95832 10.0775 2.95841 10.3584 3.12493 10.8492C3.16772 10.9752 3.31942 11.0733 3.44598 11.0733C3.99427 11.0733 4.54251 11.0733 5.09074 11.0733C5.09229 11.0733 5.09394 11.0729 5.09553 11.0728L5.07072 11.1424C4.73535 11.2551 4.4932 11.5746 4.4932 11.9519V14.5275V14.7397V17.5898C4.4932 17.8164 4.67464 18 4.89854 18H6.93856C7.16241 18 7.3439 17.8164 7.3439 17.5898V15.5931H16.6562V17.5898C16.6562 17.8164 16.8377 18 17.0615 18H19.1015C19.3254 18 19.5069 17.8164 19.5069 17.5898V14.7397V14.5275V11.9519C19.5069 11.5747 19.2648 11.2553 18.9296 11.1424L18.9047 11.0728C18.9062 11.0729 18.9078 11.0732 18.9093 11.0732C19.4576 11.0732 20.0058 11.0732 20.5541 11.0732C20.6807 11.0732 20.8324 10.9752 20.8751 10.8492C21.0417 10.3584 21.0416 10.0775 20.8751 9.58671ZM7.9538 7.50942H16.0452L17.3272 11.0984H6.67183L7.9538 7.50942ZM8.17948 13.6268H6.47283C6.10667 13.6268 5.80988 13.3265 5.80988 12.9559C5.80988 12.5855 6.10662 12.2851 6.47283 12.2851H8.17948C8.5456 12.2851 8.84243 12.5854 8.84243 12.9559C8.84247 13.3265 8.5456 13.6268 8.17948 13.6268ZM17.5271 13.6268H15.8205C15.4543 13.6268 15.1575 13.3265 15.1575 12.9559C15.1575 12.5855 15.4543 12.2851 15.8205 12.2851H17.5271C17.8933 12.2851 18.1901 12.5854 18.1901 12.9559C18.1901 13.3265 17.8933 13.6268 17.5271 13.6268Z" fill="white"/>
</svg>
