<svg width="24" height="24" viewBox="0 0 24 24" fill="none" xmlns="http://www.w3.org/2000/svg">
<path d="M24 12C24 18.6274 18.6274 24 12 24C5.37258 24 0 18.6274 0 12C0 5.37258 5.37258 0 12 0C18.6274 0 24 5.37258 24 12Z" fill="#1B6FB7"/>
<path d="M15.8241 17.3334H13.9013L13.9139 16.1832H15.8241C16.4819 16.1832 17.0301 16.0245 17.4687 15.707C17.9072 15.3847 18.2361 14.9354 18.4554 14.3591C18.6789 13.7779 18.7906 13.099 18.7906 12.3224V11.6704C18.7906 11.0599 18.7274 10.5178 18.6008 10.044C18.4743 9.56541 18.2888 9.16247 18.0442 8.83525C17.7997 8.50313 17.5003 8.25161 17.1461 8.08067C16.7961 7.90973 16.3934 7.82426 15.938 7.82426H13.8633V6.66675H15.938C16.541 6.66675 17.0913 6.78396 17.5888 7.0184C18.0864 7.24794 18.5144 7.5825 18.8728 8.02206C19.2355 8.45674 19.5138 8.98421 19.7077 9.60448C19.9017 10.2199 19.9987 10.9134 19.9987 11.6851V12.3224C19.9987 13.0941 19.9017 13.7901 19.7077 14.4103C19.5138 15.0257 19.2334 15.5508 18.8665 15.9854C18.5039 16.4201 18.0653 16.7547 17.5509 16.9891C17.0407 17.2186 16.4651 17.3334 15.8241 17.3334ZM14.5528 6.66675V17.3334H13.332V6.66675H14.5528Z" fill="white"/>
<path d="M4 8L12 8L12 8.8L4 8.8L4 8Z" fill="white"/>
<path d="M4 10.6667L12 10.6667L12 11.4667L4 11.4667L4 10.6667Z" fill="white"/>
<path d="M4 13.3333L12 13.3333L12 14.1333L4 14.1333L4 13.3333Z" fill="white"/>
<path d="M4 16L12 16L12 16.8L4 16.8L4 16Z" fill="white"/>
</svg>
