<svg width="24" height="24" viewBox="0 0 24 24" fill="none" xmlns="http://www.w3.org/2000/svg">
<path d="M24 12C24 18.6274 18.6274 24 12 24C5.37258 24 0 18.6274 0 12C0 5.37258 5.37258 0 12 0C18.6274 0 24 5.37258 24 12Z" fill="#1B6FB7"/>
<path d="M17 12H6L4 11L6.5 8.5H13.5L17 12Z" fill="#F97830"/>
<path fill-rule="evenodd" clip-rule="evenodd" d="M8.84106 14.5474C8.84106 15.3403 8.13423 15.9831 7.26233 15.9831C6.39042 15.9831 5.68359 15.3403 5.68359 14.5474C5.68359 13.7546 6.39042 13.1118 7.26233 13.1118C8.13423 13.1118 8.84106 13.7546 8.84106 14.5474Z" fill="white"/>
<path fill-rule="evenodd" clip-rule="evenodd" d="M18.3137 14.5474C18.3137 15.3403 17.6069 15.9831 16.735 15.9831C15.8631 15.9831 15.1562 15.3403 15.1562 14.5474C15.1562 13.7546 15.8631 13.1118 16.735 13.1118C17.6069 13.1118 18.3137 13.7546 18.3137 14.5474Z" fill="white"/>
<path fill-rule="evenodd" clip-rule="evenodd" d="M10.2234 10.9584V8.80496H12.9269C13.144 8.80496 13.3414 8.8767 13.4795 9.02028L15.6108 10.9584H10.2234V10.9584ZM9.43399 10.9584H4.44126L6.57255 9.02029C6.73042 8.8767 6.92776 8.80497 7.1251 8.80497H9.43399V10.9584ZM18.709 10.9584H17.0711C16.854 10.9584 16.6567 10.8867 16.5186 10.7431L14.0321 8.49992C13.736 8.23074 13.3413 8.08716 12.9072 8.08716H7.1251C6.71068 8.08716 6.29627 8.23074 6.00025 8.49992L3.55322 10.7431C3.39534 10.8867 3.31641 11.0661 3.31641 11.2634V13.1118C3.31641 13.9014 4.02684 14.5474 4.89514 14.5474H5.09248C5.09248 13.4527 6.05947 12.5735 7.26324 12.5735C8.46703 12.5735 9.43399 13.4527 9.43399 14.5474H14.5649C14.5649 13.4527 15.5319 12.5735 16.7356 12.5735C17.9394 12.5735 18.9064 13.4527 18.9064 14.5474H19.8931C20.3272 14.5474 20.6824 14.2244 20.6824 13.8296V12.7529C20.6824 11.7659 19.7944 10.9584 18.709 10.9584V10.9584Z" fill="white"/>
</svg>
