<svg width="24" height="24" viewBox="0 0 24 24" fill="none" xmlns="http://www.w3.org/2000/svg">
<path d="M24 12C24 18.6274 18.6274 24 12 24C5.37258 24 0 18.6274 0 12C0 5.37258 5.37258 0 12 0C18.6274 0 24 5.37258 24 12Z" fill="#1B6FB7"/>
<path d="M15.4773 17.2805H13.3398L13.3539 16.1766H15.4773C16.2086 16.1766 16.818 16.0242 17.3055 15.7195C17.793 15.4102 18.1586 14.9789 18.4023 14.4258C18.6508 13.868 18.775 13.2164 18.775 12.4711V11.8453C18.775 11.2594 18.7047 10.7391 18.5641 10.2844C18.4234 9.825 18.2172 9.43828 17.9453 9.12422C17.6734 8.80547 17.3406 8.56406 16.9469 8.4C16.5578 8.23594 16.1102 8.15391 15.6039 8.15391H13.2977V7.04297H15.6039C16.2742 7.04297 16.8859 7.15547 17.4391 7.38047C17.9922 7.60078 18.468 7.92188 18.8664 8.34375C19.2695 8.76094 19.5789 9.26719 19.7945 9.8625C20.0102 10.4531 20.118 11.1188 20.118 11.8594V12.4711C20.118 13.2117 20.0102 13.8797 19.7945 14.475C19.5789 15.0656 19.2672 15.5695 18.8594 15.9867C18.4563 16.4039 17.9688 16.725 17.3969 16.95C16.8297 17.1703 16.1898 17.2805 15.4773 17.2805ZM14.0641 7.04297V17.2805H12.707V7.04297H14.0641Z" fill="white"/>
<path d="M3.83984 8.70703L11.2582 6.7193L11.5066 7.64659L4.08831 9.63432L3.83984 8.70703Z" fill="white"/>
<path d="M3.83984 11.5874L11.2582 9.59967L11.5066 10.527L4.08831 12.5147L3.83984 11.5874Z" fill="white"/>
<path d="M3.83984 14.4673L11.2582 12.4796L11.5066 13.4068L4.08831 15.3946L3.83984 14.4673Z" fill="white"/>
<path d="M9 5.5C9 8.5 7 8 7 10C7 12 9 12 9 14.5C9 16.5 7 17 7 19" stroke="white"/>
<path d="M3.83984 17.3477L11.2582 15.3599L11.5066 16.2872L4.08831 18.2749L3.83984 17.3477Z" fill="white"/>
</svg>
