<svg width="24" height="24" viewBox="0 0 24 24" fill="none" xmlns="http://www.w3.org/2000/svg">
<path d="M24 12C24 18.6274 18.6274 24 12 24C5.37258 24 0 18.6274 0 12C0 5.37258 5.37258 0 12 0C18.6274 0 24 5.37258 24 12Z" fill="#1B6FB7"/>
<path d="M17.2307 8.96908L17.2311 8.96888C17.326 8.92346 17.4386 8.93628 17.5208 9.00205L21.0004 11.7857L21.0005 11.7858L20.938 11.8639C21.0207 11.9298 21.0207 12.0697 20.938 12.1356L17.2307 8.96908ZM17.2307 8.96908C17.1359 9.01498 17.0756 9.11097 17.0756 9.21619L17.0756 10.682L13.348 10.682C13.1008 10.682 12.9 10.8829 12.9 11.13L12.9 12.8699C12.9 13.117 13.1008 13.3178 13.348 13.3178L17.0756 13.3178L17.0756 14.7837C17.0756 14.8887 17.1358 14.9849 17.2309 15.0306L17.2307 8.96908ZM17.521 14.9973L21.0004 12.2138L17.2743 14.9404C17.3345 14.9695 17.4061 14.9613 17.4583 14.9194L17.5208 14.9975L17.521 14.9973ZM17.6236 13.0438C17.6236 12.8926 17.5009 12.7699 17.3496 12.7699L13.448 12.7699L13.448 11.23L17.3496 11.23C17.5009 11.23 17.6236 11.1073 17.6236 10.956L17.6236 9.78631L20.3907 11.9999L17.6236 14.2136L17.6236 13.0438Z" fill="white" stroke="white" stroke-width="0.2"/>
<path d="M6.76931 15.0307L6.76889 15.0309C6.67396 15.0763 6.5614 15.0635 6.47919 14.9977L2.99961 12.214L2.99951 12.214L3.06198 12.1359C2.97934 12.0699 2.97934 11.9301 3.06198 11.8641L6.76931 15.0307ZM6.76931 15.0307C6.86412 14.9848 6.92439 14.8888 6.92439 14.7836L6.92438 13.3177L10.652 13.3177C10.8992 13.3177 11.1 13.1169 11.1 12.8697L11.1 11.1299C11.1 10.8828 10.8992 10.6819 10.652 10.6819L6.92438 10.6819L6.92438 9.21608C6.92438 9.11101 6.86424 9.01481 6.76908 8.9692L6.76931 15.0307ZM6.47903 9.00241L2.99961 11.7859L6.72574 9.05932C6.66554 9.03026 6.59386 9.03844 6.54166 9.08037L6.47919 9.00228L6.47903 9.00241ZM6.37642 10.9559C6.37642 11.1072 6.49913 11.2299 6.6504 11.2299L10.552 11.2299L10.552 12.7697L6.6504 12.7697C6.49913 12.7697 6.37642 12.8925 6.37642 13.0437L6.37642 14.2134L3.60935 11.9998L6.37642 9.7862L6.37642 10.9559Z" fill="white" stroke="white" stroke-width="0.2"/>
</svg>
