<svg width="24" height="24" viewBox="0 0 24 24" fill="none" xmlns="http://www.w3.org/2000/svg">
<path d="M24 12C24 18.6274 18.6274 24 12 24C5.37258 24 0 18.6274 0 12C0 5.37258 5.37258 0 12 0C18.6274 0 24 5.37258 24 12Z" fill="#1B6FB7"/>
<mask id="mask0_70_154" style="mask-type:alpha" maskUnits="userSpaceOnUse" x="2" y="2" width="20" height="20">
<path d="M22 12C22 17.5228 17.5228 22 12 22C6.47715 22 2 17.5228 2 12C2 6.47715 6.47715 2 12 2C17.5228 2 22 6.47715 22 12Z" fill="#1B6FB7"/>
</mask>
<g mask="url(#mask0_70_154)">
<path d="M10.8281 9.70764L14.3185 4.12305L16.499 5L17.1108 11.1038L10.8281 9.70764Z" fill="#F97830"/>
<path d="M5.77797 17.6947H-4.61099C-4.61099 15.3475 -6.51377 13.4447 -8.86103 13.4447C-11.2083 13.4447 -13.1111 15.3474 -13.1111 17.6947H-14.0555C-14.5772 17.6947 -15 17.2719 -15 16.7502V11.5557C-15 11.0857 -14.6544 10.6872 -14.1891 10.6207L-7.94228 9.72834L-3.9253 4.8187C-3.74592 4.59944 -3.47762 4.47231 -3.19433 4.47231H7.66683C7.9897 4.47231 8.29024 4.63725 8.46365 4.9097L10.7602 8.51846L13.4921 4.42063C13.7135 4.08854 14.1198 3.93143 14.507 4.02827L16.3959 4.50047C16.9019 4.62697 17.2096 5.13974 17.0831 5.64581C16.9566 6.15182 16.4438 6.45951 15.9378 6.33301L14.6946 6.02218L12.2649 9.66675H16.167C16.6886 9.66675 17.1114 10.0896 17.1114 10.6112V16.7501C17.1114 17.2717 16.6886 17.6946 16.167 17.6946H14.2781C14.2781 15.3474 12.3753 13.4445 10.028 13.4445C7.68075 13.4445 5.77797 15.3474 5.77797 17.6947ZM-5.45134 9.66688H9.25195L7.14841 6.36129H-2.74677L-5.45134 9.66688ZM-8.86103 21.0003C-10.6866 21.0003 -12.1666 19.5203 -12.1666 17.6947C-12.1666 15.8691 -10.6867 14.3891 -8.86103 14.3891C-7.03545 14.3891 -5.55545 15.8691 -5.55545 17.6947C-5.55545 19.5203 -7.03539 21.0003 -8.86103 21.0003ZM-8.86103 19.1114C-8.07863 19.1114 -7.44437 18.4771 -7.44437 17.6947C-7.44437 16.9123 -8.07863 16.278 -8.86103 16.278C-9.64343 16.278 -10.2777 16.9123 -10.2777 17.6947C-10.2777 18.4771 -9.64343 19.1114 -8.86103 19.1114ZM10.028 21.0003C8.20244 21.0003 6.72243 19.5203 6.72243 17.6947C6.72243 15.8691 8.20237 14.3891 10.028 14.3891C11.8537 14.3891 13.3336 15.8691 13.3336 17.6947C13.3336 19.5203 11.8536 21.0003 10.028 21.0003ZM10.028 19.1114C10.8104 19.1114 11.4447 18.4771 11.4447 17.6947C11.4447 16.9123 10.8104 16.278 10.028 16.278C9.24561 16.278 8.61135 16.9123 8.61135 17.6947C8.61135 18.4771 9.24561 19.1114 10.028 19.1114Z" fill="white"/>
</g>
</svg>
