<svg width="24" height="24" viewBox="0 0 24 24" fill="none" xmlns="http://www.w3.org/2000/svg">
<path d="M24 12C24 18.6274 18.6274 24 12 24C5.37258 24 0 18.6274 0 12C0 5.37258 5.37258 0 12 0C18.6274 0 24 5.37258 24 12Z" fill="#1B6FB7"/>
<path d="M19.8043 11.6484H17.4258C17.2316 11.6484 17.0742 11.8058 17.0742 12C17.0742 12.1942 17.2316 12.3516 17.4258 12.3516H19.8043C19.9985 12.3516 20.1559 12.1942 20.1559 12C20.1559 11.8058 19.9985 11.6484 19.8043 11.6484Z" fill="white"/>
<path d="M16.9966 9.99718L18.3978 8.25445C18.5351 8.11715 18.5351 7.89457 18.3978 7.75727C18.2605 7.61997 18.0379 7.61997 17.9006 7.75727L16.4995 9.5C16.3622 9.6373 16.3622 9.85988 16.4995 9.99718C16.6367 10.1345 16.8593 10.1345 16.9966 9.99718Z" fill="white"/>
<path d="M16.9966 13.9999C16.8594 13.8626 16.6368 13.8626 16.4995 13.9999C16.3622 14.1372 16.3622 14.3598 16.4995 14.4971L17.9011 16.2425C18.0383 16.3798 18.2609 16.3798 18.3982 16.2425C18.5355 16.1052 18.5355 15.8826 18.3982 15.7453L16.9966 13.9999Z" fill="white"/>
<path d="M10.0449 10.9355H8.95508V11.9902H10.0449C10.3356 11.9902 10.5723 11.7536 10.5723 11.4629C10.5723 11.1722 10.3356 10.9355 10.0449 10.9355Z" fill="white"/>
<path d="M12.6816 8H6.31836C5.59145 8 5 8.59145 5 9.31836V15.6816C5 16.4085 5.59145 17 6.31836 17H12.6816C13.4085 17 14 16.4085 14 15.6816V9.31836C14 8.59145 13.4085 8 12.6816 8ZM10.0449 13.0449H8.95508V14.8906C8.95508 15.0362 8.83702 15.1543 8.69141 15.1543H8.16406C8.01845 15.1543 7.90039 15.0362 7.90039 14.8906V13.0449V10.4082V10.1445C7.90039 9.99891 8.01845 9.88086 8.16406 9.88086H10.0449C10.9173 9.88086 11.627 10.5905 11.627 11.4629C11.627 12.3353 10.9173 13.0449 10.0449 13.0449Z" fill="white"/>
</svg>
