<svg width="24" height="24" viewBox="0 0 24 24" fill="none" xmlns="http://www.w3.org/2000/svg">
<path d="M5.36442e-07 12C5.36442e-07 18.6274 5.37258 24 12 24C18.6274 24 24 18.6274 24 12C24 5.37258 18.6274 0 12 0C5.37258 0 5.36442e-07 5.37258 5.36442e-07 12Z" fill="#1B6FB7"/>
<path d="M8.52266 17.2805H10.6602L10.6461 16.1766H8.52266C7.79141 16.1766 7.18203 16.0242 6.69453 15.7195C6.20703 15.4102 5.84141 14.9789 5.59766 14.4258C5.34922 13.868 5.225 13.2164 5.225 12.4711V11.8453C5.225 11.2594 5.29531 10.7391 5.43594 10.2844C5.57656 9.825 5.78281 9.43828 6.05469 9.12422C6.32656 8.80547 6.65937 8.56406 7.05312 8.4C7.44219 8.23594 7.88984 8.15391 8.39609 8.15391H10.7023V7.04297H8.39609C7.72578 7.04297 7.11406 7.15547 6.56094 7.38047C6.00781 7.60078 5.53203 7.92188 5.13359 8.34375C4.73047 8.76094 4.42109 9.26719 4.20547 9.8625C3.98984 10.4531 3.88203 11.1188 3.88203 11.8594V12.4711C3.88203 13.2117 3.98984 13.8797 4.20547 14.475C4.42109 15.0656 4.73281 15.5695 5.14062 15.9867C5.54375 16.4039 6.03125 16.725 6.60312 16.95C7.17031 17.1703 7.81016 17.2805 8.52266 17.2805ZM9.93594 7.04297V17.2805H11.293V7.04297H9.93594Z" fill="white"/>
<path d="M20.1602 8.70703L12.7418 6.7193L12.4934 7.64659L19.9117 9.63432L20.1602 8.70703Z" fill="white"/>
<path d="M20.1602 11.5874L12.7418 9.59967L12.4934 10.527L19.9117 12.5147L20.1602 11.5874Z" fill="white"/>
<path d="M20.1602 14.4673L12.7418 12.4796L12.4934 13.4068L19.9117 15.3946L20.1602 14.4673Z" fill="white"/>
<path d="M20.1602 17.3477L12.7418 15.3599L12.4934 16.2872L19.9117 18.2749L20.1602 17.3477Z" fill="white"/>
</svg>
