<svg width="15" height="15" viewBox="0 0 15 15" fill="none" xmlns="http://www.w3.org/2000/svg">
<path opacity="0.29" d="M14.8372 14.0515L10.8044 10.0187C11.6886 8.95853 12.2222 7.59632 12.2222 6.11105C12.2222 2.74136 9.48081 0 6.1111 0C2.74138 0 0 2.74136 0 6.11105C0 9.48075 2.74138 12.2221 6.1111 12.2221C7.59637 12.2221 8.95859 11.6885 10.0187 10.8043L14.0516 14.8372C14.1601 14.9457 14.3023 15 14.4444 15C14.5865 15 14.7287 14.9457 14.8372 14.8372C15.0543 14.6201 15.0543 14.2685 14.8372 14.0515ZM1.11111 6.11105C1.11111 3.35414 3.35388 1.1111 6.1111 1.1111C8.86831 1.1111 11.1111 3.35414 11.1111 6.11105C11.1111 8.86797 8.86831 11.111 6.1111 11.111C3.35388 11.111 1.11111 8.86797 1.11111 6.11105Z" fill="#1B6FB7"/>
</svg>
