<svg width="10" height="16" viewBox="0 0 10 16" fill="none" xmlns="http://www.w3.org/2000/svg">
<path d="M3.2769 8.99837C3.21813 8.99837 1.92501 8.99837 1.33723 8.99837C1.02374 8.99837 0.925781 8.88212 0.925781 8.59148C0.925781 7.81643 0.925781 7.02201 0.925781 6.24697C0.925781 5.93695 1.04334 5.84007 1.33723 5.84007H3.2769C3.2769 5.78195 3.2769 4.65813 3.2769 4.13498C3.2769 3.35994 3.41405 2.62365 3.80591 1.94548C4.21735 1.24795 4.80513 0.782919 5.54965 0.511654C6.03947 0.33727 6.52929 0.259766 7.05829 0.259766H8.97837C9.25267 0.259766 9.37023 0.376022 9.37023 0.647287V2.85616C9.37023 3.12742 9.25267 3.24368 8.97837 3.24368C8.44937 3.24368 7.92037 3.24368 7.39137 3.26306C6.86236 3.26306 6.58807 3.51495 6.58807 4.05748C6.56847 4.63876 6.58807 5.20066 6.58807 5.80132H8.86082C9.1743 5.80132 9.29185 5.91758 9.29185 6.2276V8.5721C9.29185 8.88212 9.19389 8.979 8.86082 8.979C8.15548 8.979 6.64684 8.979 6.58807 8.979V15.2956C6.58807 15.625 6.4901 15.7412 6.13743 15.7412C5.31454 15.7412 4.51124 15.7412 3.68835 15.7412C3.39446 15.7412 3.2769 15.625 3.2769 15.3343C3.2769 13.2999 3.2769 9.0565 3.2769 8.99837Z" fill="black"/>
</svg>
