<svg width="20" height="20" viewBox="0 0 20 20" fill="none" xmlns="http://www.w3.org/2000/svg">
<path d="M9.02751 0.770508C4.48202 0.770508 0.779297 4.47322 0.779297 9.01873C0.779297 13.5642 4.48202 17.2741 9.02751 17.2741C10.969 17.2741 12.7546 16.5937 14.1659 15.464L17.6016 18.8979C17.775 19.0641 18.0065 19.1558 18.2467 19.1534C18.4869 19.1509 18.7165 19.0545 18.8865 18.8848C19.0564 18.7151 19.1531 18.4856 19.1559 18.2455C19.1587 18.0053 19.0673 17.7736 18.9014 17.6L15.4657 14.1643C16.5963 12.7509 17.2775 10.9625 17.2775 9.01873C17.2775 4.47322 13.573 0.770508 9.02751 0.770508ZM9.02751 2.60387C12.5822 2.60387 15.4424 5.46405 15.4424 9.01873C15.4424 12.5734 12.5822 15.4408 9.02751 15.4408C5.47283 15.4408 2.61263 12.5734 2.61263 9.01873C2.61263 5.46405 5.47283 2.60387 9.02751 2.60387Z" fill="white"/>
</svg>
