<svg width="14" height="14" viewBox="0 0 14 14" fill="none" xmlns="http://www.w3.org/2000/svg">
<path d="M10.6806 3.01099C10.511 3.01099 10.373 3.14896 10.373 3.3185C10.373 3.48804 10.511 3.62601 10.6806 3.62601C10.8501 3.62601 10.9881 3.48806 10.9881 3.3185C10.9881 3.14893 10.8501 3.01099 10.6806 3.01099Z" fill="black"/>
<path d="M6.99964 4.27271C5.49641 4.27271 4.27344 5.49568 4.27344 6.99891C4.27344 8.50213 5.49641 9.72514 6.99964 9.72514C8.50289 9.72514 9.72587 8.50216 9.72587 6.99893C9.72587 5.49571 8.50289 4.27271 6.99964 4.27271Z" fill="black"/>
<path d="M9.86031 0.666016H4.13839C2.22372 0.666016 0.666016 2.22372 0.666016 4.13841V9.86031C0.666016 11.775 2.22372 13.3327 4.13839 13.3327H9.86031C11.775 13.3327 13.3327 11.775 13.3327 9.86031V4.13841C13.3327 2.22372 11.775 0.666016 9.86031 0.666016ZM6.99935 10.4736C5.08364 10.4736 3.52514 8.91506 3.52514 6.99935C3.52514 5.08364 5.08366 3.52517 6.99935 3.52517C8.91503 3.52517 10.4736 5.08366 10.4736 6.99935C10.4736 8.91503 8.91503 10.4736 6.99935 10.4736ZM10.6814 4.3729C10.0993 4.3729 9.62583 3.89938 9.62583 3.31736C9.62583 2.73533 10.0993 2.26179 10.6814 2.26179C11.2634 2.26179 11.7369 2.73531 11.7369 3.31733C11.7369 3.89936 11.2634 4.3729 10.6814 4.3729Z" fill="black"/>
</svg>
