<svg width="11" height="11" viewBox="0 0 11 11" fill="none" xmlns="http://www.w3.org/2000/svg">
<path d="M5.4706 1.38049V0.0846044C5.4706 0.0126106 5.5606 -0.0256361 5.62134 0.01936L8.2851 1.97669C8.3301 2.01044 8.3301 2.07568 8.2851 2.10943L5.62134 4.06676C5.5606 4.11176 5.4706 4.07126 5.4706 4.00152V2.70788C3.49528 2.73938 1.91367 4.41773 2.04866 6.42906C2.1634 8.15691 3.57177 9.55854 5.29962 9.66878C7.13096 9.78577 8.68782 8.47638 8.96679 6.74628C9.01854 6.42456 9.29751 6.19058 9.62373 6.19058C10.0264 6.19058 10.3392 6.5483 10.2762 6.94426C9.88471 9.4123 7.61016 11.2639 4.9734 10.9692C2.76859 10.7217 0.998001 8.95784 0.748273 6.75303C0.417553 3.86878 2.65835 1.41199 5.4706 1.38049Z" fill="white"/>
</svg>
