<svg width="126" height="28" viewBox="0 0 126 28" fill="none" xmlns="http://www.w3.org/2000/svg">
<path d="M8.344 27.384C5.528 27.384 3.52267 26.648 2.328 25.176C1.15467 23.6827 0.568 21.5387 0.568 18.744V9.4C0.568 6.54133 1.15467 4.38667 2.328 2.936C3.50133 1.464 5.50667 0.727999 8.344 0.727999C11.0533 0.727999 12.9733 1.37867 14.104 2.68C15.2347 3.98133 15.8 5.82667 15.8 8.216V10.456H10.2V7.864C10.2 6.86133 10.0933 6.09333 9.88 5.56C9.66667 5.02667 9.15467 4.76 8.344 4.76C7.53333 4.76 7 5.048 6.744 5.624C6.488 6.17867 6.36 6.95733 6.36 7.96V20.152C6.36 21.176 6.488 21.9653 6.744 22.52C7.02133 23.0533 7.55467 23.32 8.344 23.32C9.13333 23.32 9.63467 23.0533 9.848 22.52C10.0827 21.9653 10.2 21.176 10.2 20.152V17.432H15.8V19.672C15.8 22.104 15.2347 24.0027 14.104 25.368C12.9733 26.712 11.0533 27.384 8.344 27.384ZM22.4713 27.32C21.5753 27.32 20.7966 27.1067 20.1353 26.68C19.4953 26.232 19.0046 25.6667 18.6633 24.984C18.3433 24.28 18.1833 23.5547 18.1833 22.808C18.1833 21.3787 18.5459 20.2053 19.2713 19.288C19.9966 18.3707 20.8606 17.656 21.8633 17.144C22.8873 16.632 24.1993 16.0987 25.7993 15.544V13.688C25.7993 13.1547 25.7139 12.7493 25.5433 12.472C25.3939 12.1947 25.1166 12.056 24.7113 12.056C24.3059 12.056 24.0179 12.184 23.8473 12.44C23.6766 12.696 23.5806 13.0587 23.5593 13.528L23.4313 14.872L18.5673 14.68C18.6526 12.4613 19.2393 10.8293 20.3273 9.784C21.4153 8.71733 23.0366 8.184 25.1913 8.184C27.0046 8.184 28.3913 8.696 29.3513 9.72C30.3113 10.7227 30.7913 12.0667 30.7913 13.752V22.392C30.7913 24.2693 30.8979 25.8053 31.1113 27H26.4392C26.2473 25.5707 26.1086 24.696 26.0233 24.376C25.7673 25.2293 25.3406 25.9333 24.7433 26.488C24.1459 27.0427 23.3886 27.32 22.4713 27.32ZM24.3273 23.8C24.8606 23.8 25.3513 23.4907 25.7993 22.872V17.816C24.8393 18.3707 24.1139 18.9573 23.6233 19.576C23.1326 20.1733 22.8873 20.9093 22.8873 21.784C22.8873 22.4027 23.0153 22.8933 23.2713 23.256C23.5273 23.6187 23.8793 23.8 24.3273 23.8ZM33.946 8.504H39.162V11.576C39.802 10.4453 40.4207 9.61333 41.018 9.08C41.6153 8.54667 42.3193 8.28 43.13 8.28C43.4287 8.28 43.6953 8.312 43.93 8.376V13.56C43.29 13.304 42.7247 13.176 42.234 13.176C41.1033 13.176 40.0793 13.7733 39.162 14.968V27H33.946V8.504ZM54.6075 1.08H61.3595C63.0448 1.08 64.4742 1.26133 65.6475 1.624C66.8422 1.96533 67.8022 2.63733 68.5275 3.64C69.2528 4.64267 69.6155 6.05067 69.6155 7.864C69.6155 9.4 69.2848 10.5947 68.6235 11.448C67.9622 12.3013 67.0235 12.8453 65.8075 13.08C67.3008 13.272 68.4422 13.9013 69.2315 14.968C70.0208 16.0347 70.4155 17.4853 70.4155 19.32C70.4155 24.44 67.8022 27 62.5755 27H54.6075V1.08ZM61.4555 11.448C62.6715 11.448 63.4928 11.1707 63.9195 10.616C64.3675 10.0613 64.5915 9.19733 64.5915 8.024C64.5915 7 64.3142 6.232 63.7595 5.72C63.2048 5.18667 62.3942 4.92 61.3275 4.92H60.3355V11.448H61.4555ZM61.5515 23C62.7675 23 63.6208 22.7013 64.1115 22.104C64.6235 21.4853 64.8795 20.5253 64.8795 19.224C64.8795 17.752 64.6235 16.7173 64.1115 16.12C63.6208 15.5227 62.7568 15.224 61.5195 15.224H60.3355V23H61.5515ZM76.396 27.32C75.2867 27.32 74.4333 26.9253 73.836 26.136C73.2387 25.3253 72.94 24.28 72.94 23V8.504H78.156V22.392C78.156 22.8613 78.2413 23.2133 78.412 23.448C78.5827 23.6827 78.86 23.8 79.244 23.8C79.5853 23.8 80.0973 23.608 80.78 23.224V8.504H85.964V27H80.78V25.304C79.3293 26.648 77.868 27.32 76.396 27.32ZM89.481 1.08H94.665V27H89.481V1.08ZM107.222 27.32C105.9 27.32 104.577 26.744 103.254 25.592V27H98.0383V1.08H103.254V9.848C103.873 9.29333 104.534 8.87733 105.238 8.6C105.942 8.32267 106.625 8.184 107.286 8.184C108.63 8.184 109.622 8.68533 110.262 9.688C110.924 10.6907 111.254 12.0027 111.254 13.624V21.592C111.254 23.3627 110.902 24.76 110.198 25.784C109.494 26.808 108.502 27.32 107.222 27.32ZM104.694 23.96C105.164 23.96 105.505 23.768 105.718 23.384C105.932 23 106.038 22.4987 106.038 21.88V13.24C106.038 12.664 105.932 12.2053 105.718 11.864C105.526 11.5013 105.206 11.32 104.758 11.32C104.268 11.32 103.766 11.5227 103.254 11.928V23.448C103.724 23.7893 104.204 23.96 104.694 23.96ZM119.922 27.32C118.279 27.32 116.914 26.9573 115.826 26.232C114.759 25.4853 113.895 24.3013 113.234 22.68L116.786 21.112C117.127 21.9653 117.522 22.6267 117.97 23.096C118.439 23.5653 118.951 23.8 119.506 23.8C120.316 23.8 120.722 23.48 120.722 22.84C120.722 22.3707 120.562 21.9547 120.242 21.592C119.922 21.208 119.228 20.5787 118.162 19.704L116.818 18.584C115.708 17.6453 114.898 16.792 114.386 16.024C113.895 15.256 113.65 14.3387 113.65 13.272C113.65 12.2907 113.906 11.416 114.418 10.648C114.951 9.88 115.655 9.28267 116.53 8.856C117.404 8.408 118.343 8.184 119.346 8.184C120.86 8.184 122.119 8.6 123.122 9.432C124.146 10.2427 124.871 11.416 125.298 12.952L121.938 14.488C121.724 13.8053 121.394 13.1973 120.946 12.664C120.498 12.1093 120.007 11.832 119.474 11.832C119.132 11.832 118.855 11.928 118.642 12.12C118.45 12.312 118.354 12.568 118.354 12.888C118.354 13.272 118.556 13.688 118.962 14.136C119.388 14.584 120.05 15.1707 120.946 15.896L122.258 17.048C123.324 17.944 124.146 18.7867 124.722 19.576C125.298 20.344 125.586 21.2507 125.586 22.296C125.586 23.3413 125.319 24.248 124.786 25.016C124.274 25.7627 123.58 26.3387 122.706 26.744C121.852 27.128 120.924 27.32 119.922 27.32Z" fill="black"/>
</svg>
