<svg width="25" height="25" viewBox="0 0 25 25" fill="none" xmlns="http://www.w3.org/2000/svg">
<path d="M24.8832 12.4416C24.8832 19.3129 19.3129 24.8832 12.4416 24.8832C5.57031 24.8832 0 19.3129 0 12.4416C0 5.57031 5.57031 0 12.4416 0C19.3129 0 24.8832 5.57031 24.8832 12.4416Z" fill="white"/>
<path d="M13.6526 16.6011H11.3463C11.1678 16.6011 11.0229 16.746 11.0229 16.9245C11.0229 17.1031 11.1678 17.248 11.3463 17.248H13.6526C13.8311 17.248 13.9761 17.1031 13.9761 16.9245C13.9762 16.746 13.8312 16.6011 13.6526 16.6011Z" fill="#1B6FB7"/>
<path d="M11.9055 18.4861C11.9494 18.7764 12.1974 18.9999 12.5002 18.9999C12.8026 18.9999 13.0512 18.7765 13.0949 18.4861C13.4908 18.4627 13.8054 18.1373 13.8054 17.7356H11.1934C11.1934 18.1376 11.5089 18.4632 11.9055 18.4861Z" fill="#1B6FB7"/>
<path d="M12.5003 7.8659C12.7389 7.8659 12.9317 7.67278 12.9317 7.43461V6.43129C12.9317 6.19304 12.7389 6 12.5003 6C12.2619 6 12.0691 6.19304 12.0691 6.43129V7.43461C12.0691 7.67278 12.2619 7.8659 12.5003 7.8659Z" fill="#1B6FB7"/>
<path d="M9.66997 8.49413C9.75467 8.61042 9.8861 8.67214 10.0197 8.67214C10.1073 8.67214 10.1961 8.64536 10.2727 8.58975C10.4652 8.4499 10.5082 8.18022 10.3683 7.98754L9.77868 7.17557C9.63845 6.98306 9.3693 6.93967 9.1761 7.07995C8.98361 7.21973 8.94064 7.48949 9.0805 7.68216L9.66997 8.49413Z" fill="#1B6FB7"/>
<path d="M15.3296 14.8163C15.1897 14.6238 14.9202 14.5811 14.7271 14.721C14.5348 14.861 14.4918 15.1307 14.6321 15.3234L15.2221 16.1353C15.3062 16.2514 15.4377 16.3131 15.5713 16.3131C15.6592 16.3131 15.7477 16.2864 15.8243 16.2308C16.0168 16.0907 16.0597 15.821 15.9196 15.6283L15.3296 14.8163Z" fill="#1B6FB7"/>
<path d="M8.61976 9.94105L7.6653 9.63064C7.43661 9.55695 7.19544 9.68095 7.12166 9.90756C7.04787 10.1339 7.17179 10.3773 7.39832 10.451L8.35279 10.7614C8.39736 10.7758 8.44196 10.7827 8.48617 10.7827C8.6681 10.7827 8.83697 10.6669 8.89642 10.4845C8.97019 10.2582 8.84629 10.0147 8.61976 9.94105Z" fill="#1B6FB7"/>
<path d="M17.6016 12.8593L16.6474 12.5494C16.4207 12.4762 16.1777 12.5999 16.104 12.8262C16.0303 13.0528 16.1545 13.2962 16.381 13.3698L17.3355 13.6798C17.3797 13.6941 17.4243 13.701 17.4685 13.701C17.6504 13.701 17.8193 13.585 17.8788 13.4029C17.9524 13.1762 17.8283 12.933 17.6016 12.8593Z" fill="#1B6FB7"/>
<path d="M8.35319 12.5498L7.39839 12.8594C7.17186 12.9328 7.04759 13.176 7.12139 13.4026C7.18031 13.585 7.3495 13.701 7.53143 13.701C7.57534 13.701 7.62044 13.694 7.66467 13.6797L8.61929 13.3702C8.84601 13.2967 8.97025 13.0535 8.89651 12.8269C8.82326 12.6005 8.58183 12.4767 8.35319 12.5498Z" fill="#1B6FB7"/>
<path d="M16.5143 10.7826C16.5586 10.7826 16.6031 10.7756 16.6474 10.7613L17.6016 10.4513C17.8283 10.3776 17.9524 10.1344 17.8788 9.90786C17.805 9.68144 17.5608 9.55769 17.3355 9.63094L16.381 9.94088C16.1545 10.0145 16.0303 10.2578 16.104 10.4844C16.1633 10.6666 16.3324 10.7826 16.5143 10.7826Z" fill="#1B6FB7"/>
<path d="M9.67048 14.8161L9.07991 15.6276C8.93968 15.8202 8.98231 16.09 9.17519 16.23C9.25144 16.2858 9.34027 16.3127 9.42818 16.3127C9.56177 16.3127 9.6932 16.2512 9.7774 16.1351L10.3679 15.3235C10.5082 15.1309 10.4655 14.8612 10.2727 14.7211C10.0807 14.5802 9.80976 14.6234 9.67048 14.8161Z" fill="#1B6FB7"/>
<path d="M15.2219 7.17586L14.6323 7.98783C14.4924 8.1805 14.5353 8.45021 14.7279 8.59004C14.8045 8.64565 14.8933 8.67242 14.9809 8.67242C15.1145 8.67242 15.2459 8.61073 15.3304 8.49442L15.9201 7.68242C16.0599 7.48975 16.0169 7.21999 15.8244 7.08021C15.6307 6.93959 15.3621 6.98292 15.2219 7.17586Z" fill="#1B6FB7"/>
<path d="M15.6151 11.6712C15.6151 9.95052 14.2204 8.55566 12.4999 8.55566C10.7791 8.55566 9.38428 9.95052 9.38428 11.6712C9.38428 12.397 9.63392 13.0635 10.051 13.5927C10.4164 14.0564 10.7625 14.5626 11.0625 15.072V16.1068H13.9196V15.0994C14.2168 14.604 14.601 14.0336 14.9481 13.5932C15.3655 13.0639 15.6151 12.3975 15.6151 11.6712Z" fill="#1B6FB7"/>
</svg>
