<svg width="25" height="25" viewBox="0 0 25 25" fill="none" xmlns="http://www.w3.org/2000/svg">
<path d="M24.8832 12.4416C24.8832 19.3129 19.3129 24.8832 12.4416 24.8832C5.57031 24.8832 0 19.3129 0 12.4416C0 5.57031 5.57031 0 12.4416 0C19.3129 0 24.8832 5.57031 24.8832 12.4416Z" fill="white"/>
<g clip-path="url(#clip0_418_156)">
<path d="M13.6525 16.6011H11.3462C11.1677 16.6011 11.0228 16.746 11.0228 16.9245C11.0228 17.1031 11.1677 17.248 11.3462 17.248H13.6525C13.831 17.248 13.976 17.1031 13.976 16.9245C13.976 16.746 13.8311 16.6011 13.6525 16.6011Z" fill="#1B6FB7"/>
<path d="M11.9054 18.4861C11.9493 18.7764 12.1973 18.9999 12.5001 18.9999C12.8025 18.9999 13.0511 18.7765 13.0948 18.4861C13.4907 18.4627 13.8053 18.1373 13.8053 17.7356H11.1932C11.1932 18.1376 11.5088 18.4632 11.9054 18.4861Z" fill="#1B6FB7"/>
<path d="M15.615 11.6712C15.615 9.95052 14.2202 8.55566 12.4998 8.55566C10.779 8.55566 9.38416 9.95052 9.38416 11.6712C9.38416 12.397 9.6338 13.0635 10.0508 13.5927C10.4163 14.0564 10.7624 14.5626 11.0624 15.072V16.1068H13.9195V15.0994C14.2167 14.604 14.6009 14.0336 14.948 13.5932C15.3654 13.0639 15.615 12.3975 15.615 11.6712Z" fill="#1B6FB7"/>
</g>
<path d="M5.2911 10.0843L4 10.6614L4.71398 8.79316L5.2911 10.0843Z" stroke="#1B6FB7"/>
<path d="M8.32276 6.56938L6.92163 6.37744L8.5147 5.16825L8.32276 6.56938Z" stroke="#1B6FB7"/>
<path d="M16.7672 6.46557L16.5439 5.06909L18.1637 6.24227L16.7672 6.46557Z" stroke="#1B6FB7"/>
<path d="M19.3777 10.3037L19.9258 9L20.6815 10.8517L19.3777 10.3037Z" stroke="#1B6FB7"/>
<path d="M3.5 12.5C3.5 11.3181 3.73279 10.1478 4.18508 9.05585C4.63738 7.96392 5.30031 6.97177 6.13604 6.13604C6.97177 5.30031 7.96392 4.63738 9.05585 4.18508C10.1478 3.73279 11.3181 3.5 12.5 3.5C13.6819 3.5 14.8522 3.73279 15.9442 4.18508C17.0361 4.63738 18.0282 5.30031 18.864 6.13604C19.6997 6.97177 20.3626 7.96392 20.8149 9.05585C21.2672 10.1478 21.5 11.3181 21.5 12.5" stroke="#1B6FB7"/>
<path d="M12.5 5L11.5 4H13.5L12.5 5Z" stroke="#1B6FB7"/>
<defs>
<clipPath id="clip0_418_156">
<rect width="13" height="13" fill="white" transform="translate(6 6)"/>
</clipPath>
</defs>
</svg>
