<svg width="25" height="25" viewBox="0 0 25 25" fill="none" xmlns="http://www.w3.org/2000/svg">
<path d="M24.9999 12.4416C24.9999 19.3129 19.4296 24.8832 12.5583 24.8832C5.687 24.8832 0.116699 19.3129 0.116699 12.4416C0.116699 5.57031 5.687 0 12.5583 0C19.4296 0 24.9999 5.57031 24.9999 12.4416Z" fill="white"/>
<path d="M16.165 17.9165H13.9488L13.9634 16.772H16.165C16.9232 16.772 17.555 16.614 18.0604 16.2981C18.5658 15.9774 18.9449 15.5302 19.1976 14.9568C19.4552 14.3784 19.584 13.7029 19.584 12.9301V12.2813C19.584 11.6738 19.5111 11.1344 19.3653 10.6629C19.2195 10.1867 19.0057 9.78571 18.7238 9.46009C18.4419 9.12961 18.0968 8.87932 17.6886 8.70922C17.2852 8.53912 16.8211 8.45407 16.2962 8.45407H13.9051V7.30225H16.2962C16.9912 7.30225 17.6254 7.41889 18.1989 7.65217C18.7724 7.88059 19.2657 8.2135 19.6788 8.6509C20.0967 9.08344 20.4175 9.60832 20.6411 10.2255C20.8646 10.8379 20.9764 11.528 20.9764 12.2959V12.9301C20.9764 13.698 20.8646 14.3906 20.6411 15.0078C20.4175 15.6202 20.0943 16.1426 19.6715 16.5751C19.2535 17.0077 18.7481 17.3406 18.1552 17.5739C17.5671 17.8023 16.9037 17.9165 16.165 17.9165ZM14.6997 7.30225V17.9165H13.2927V7.30225H14.6997Z" fill="#1B6FB7"/>
<path d="M4.0979 9.02734L11.7892 6.96646L12.0468 7.92788L4.35551 9.98876L4.0979 9.02734Z" fill="#1B6FB7"/>
<path d="M4.0979 12.0137L11.7892 9.95279L12.0468 10.9142L4.35551 12.9751L4.0979 12.0137Z" fill="#1B6FB7"/>
<path d="M4.0979 15L11.7892 12.9391L12.0468 13.9005L4.35551 15.9614L4.0979 15Z" fill="#1B6FB7"/>
<path d="M4.0979 17.9858L11.7892 15.925L12.0468 16.8864L4.35551 18.9473L4.0979 17.9858Z" fill="#1B6FB7"/>
</svg>
