<svg width="13" height="13" viewBox="0 0 13 13" fill="none" xmlns="http://www.w3.org/2000/svg">
<path d="M18.8832 5.44162C18.8832 12.3129 13.3129 17.8832 6.44162 17.8832C-0.429695 17.8832 -6 12.3129 -6 5.44162C-6 -1.42969 -0.429695 -7 6.44162 -7C13.3129 -7 18.8832 -1.42969 18.8832 5.44162Z" fill="white"/>
<path d="M5.34753 2.39893L7.65378 2.39893C7.83231 2.39893 7.97717 2.25404 7.97717 2.07553C7.97717 1.89689 7.83231 1.75204 7.65378 1.75204L5.34753 1.75204C5.169 1.75204 5.02398 1.8969 5.02398 2.07553C5.02395 2.25404 5.16895 2.39893 5.34753 2.39893Z" fill="#1B6FB7"/>
<path d="M7.0946 0.513938C7.05074 0.22364 6.80272 8.49648e-05 6.49995 8.49913e-05C6.19748 8.50177e-05 5.94889 0.223535 5.90521 0.513938C5.50931 0.537318 5.19468 0.862658 5.19468 1.2644L7.80676 1.2644C7.80676 0.862421 7.49122 0.536843 7.0946 0.513938Z" fill="#1B6FB7"/>
<path d="M3.38499 7.32882C3.38499 9.04948 4.77977 10.4443 6.50023 10.4443C8.22104 10.4443 9.61584 9.04948 9.61584 7.32882C9.61584 6.60297 9.3662 5.93646 8.94915 5.40734C8.58369 4.94365 8.23757 4.43743 7.93761 3.92803L7.93761 2.89316L5.08054 2.89316L5.08054 3.90057C4.78335 4.39602 4.39914 4.96645 4.05202 5.40684C3.63461 5.93612 3.38499 6.6025 3.38499 7.32882Z" fill="#1B6FB7"/>
<line x1="2.02391" y1="8.01118" x2="10.7172" y2="5.68181" stroke="#1B6FB7"/>
<line x1="2.28273" y1="5.51704" x2="10.9761" y2="7.84641" stroke="#1B6FB7"/>
<line x1="6.5" y1="5" x2="6.5" y2="11" stroke="#1B6FB7"/>
</svg>
