<svg width="25" height="25" viewBox="0 0 25 25" fill="none" xmlns="http://www.w3.org/2000/svg">
<path d="M24.8832 12.4416C24.8832 19.3129 19.3129 24.8832 12.4416 24.8832C5.57031 24.8832 0 19.3129 0 12.4416C0 5.57031 5.57031 0 12.4416 0C19.3129 0 24.8832 5.57031 24.8832 12.4416Z" fill="white"/>
<path d="M8.45833 8L21 13.8H7V18H16.9167" stroke="#1B6FB7"/>
<mask id="path-3-inside-1_416_149" fill="white">
<path d="M14 17.5C14 18.163 13.7366 18.7989 13.2678 19.2678C12.7989 19.7366 12.163 20 11.5 20C10.837 20 10.2011 19.7366 9.73223 19.2678C9.26339 18.7989 9 18.163 9 17.5L11.5 17.5H14Z"/>
</mask>
<path d="M14 17.5C14 18.163 13.7366 18.7989 13.2678 19.2678C12.7989 19.7366 12.163 20 11.5 20C10.837 20 10.2011 19.7366 9.73223 19.2678C9.26339 18.7989 9 18.163 9 17.5L11.5 17.5H14Z" stroke="#1B6FB7" stroke-width="2" mask="url(#path-3-inside-1_416_149)"/>
<mask id="path-4-inside-2_416_149" fill="white">
<path d="M11.5753 8.92801C11.3737 9.30131 11.032 9.57922 10.6255 9.7006C10.2189 9.82199 9.78082 9.77691 9.40752 9.57528C9.03423 9.37365 8.75632 9.03198 8.63493 8.62545C8.51355 8.21891 8.55863 7.78081 8.76026 7.40751L10.1678 8.16776L11.5753 8.92801Z"/>
</mask>
<path d="M11.5753 8.92801C11.3737 9.30131 11.032 9.57922 10.6255 9.7006C10.2189 9.82199 9.78082 9.77691 9.40752 9.57528C9.03423 9.37365 8.75632 9.03198 8.63493 8.62545C8.51355 8.21891 8.55863 7.78081 8.76026 7.40751L10.1678 8.16776L11.5753 8.92801Z" stroke="#1B6FB7" stroke-width="2" mask="url(#path-4-inside-2_416_149)"/>
<mask id="path-5-inside-3_416_149" fill="white">
<path d="M14.1966 10.2876C13.935 10.8052 13.4785 11.1976 12.9275 11.3785C12.3766 11.5595 11.7763 11.5142 11.2587 11.2526C10.7412 10.9909 10.3488 10.5344 10.1678 9.98346C9.98686 9.43251 10.0322 8.83223 10.2938 8.31468L12.2452 9.30115L14.1966 10.2876Z"/>
</mask>
<path d="M14.1966 10.2876C13.935 10.8052 13.4785 11.1976 12.9275 11.3785C12.3766 11.5595 11.7763 11.5142 11.2587 11.2526C10.7412 10.9909 10.3488 10.5344 10.1678 9.98346C9.98686 9.43251 10.0322 8.83223 10.2938 8.31468L12.2452 9.30115L14.1966 10.2876Z" stroke="#1B6FB7" stroke-width="2" mask="url(#path-5-inside-3_416_149)"/>
</svg>
