<svg width="25" height="25" viewBox="0 0 25 25" fill="none" xmlns="http://www.w3.org/2000/svg">
<path d="M24.8832 12.4416C24.8832 19.3129 19.3129 24.8832 12.4416 24.8832C5.57031 24.8832 0 19.3129 0 12.4416C0 5.57031 5.57031 0 12.4416 0C19.3129 0 24.8832 5.57031 24.8832 12.4416Z" fill="white"/>
<g clip-path="url(#clip0_418_160)">
<path d="M11.3475 9.39893L13.6538 9.39893C13.8323 9.39893 13.9772 9.25404 13.9772 9.07553C13.9772 8.89689 13.8323 8.75204 13.6538 8.75204L11.3475 8.75204C11.169 8.75204 11.024 8.8969 11.024 9.07553C11.024 9.25404 11.1689 9.39893 11.3475 9.39893Z" fill="#1B6FB7"/>
<path d="M13.0946 7.51394C13.0507 7.22364 12.8027 7.00009 12.4999 7.00009C12.1975 7.00009 11.9489 7.22353 11.9052 7.51394C11.5093 7.53732 11.1947 7.86266 11.1947 8.2644L13.8068 8.2644C13.8068 7.86242 13.4912 7.53684 13.0946 7.51394Z" fill="#1B6FB7"/>
<path d="M9.38499 14.3288C9.38499 16.0495 10.7798 17.4443 12.5002 17.4443C14.221 17.4443 15.6158 16.0495 15.6158 14.3288C15.6158 13.603 15.3662 12.9365 14.9492 12.4073C14.5837 11.9436 14.2376 11.4374 13.9376 10.928L13.9376 9.89316L11.0805 9.89316L11.0805 10.9006C10.7833 11.396 10.3991 11.9664 10.052 12.4068C9.63461 12.9361 9.38499 13.6025 9.38499 14.3288Z" fill="#1B6FB7"/>
<line x1="8.02391" y1="15.0112" x2="16.7172" y2="12.6818" stroke="#1B6FB7"/>
<line x1="8.28273" y1="12.517" x2="16.9761" y2="14.8464" stroke="#1B6FB7"/>
<line x1="12.5" y1="12" x2="12.5" y2="18" stroke="#1B6FB7"/>
</g>
<defs>
<clipPath id="clip0_418_160">
<rect width="13" height="13" fill="white" transform="translate(19 20) rotate(180)"/>
</clipPath>
</defs>
</svg>
