<svg width="25" height="25" viewBox="0 0 25 25" fill="none" xmlns="http://www.w3.org/2000/svg">
<path d="M24.8832 12.4416C24.8832 19.3129 19.3129 24.8832 12.4416 24.8832C5.57031 24.8832 0 19.3129 0 12.4416C0 5.57031 5.57031 0 12.4416 0C19.3129 0 24.8832 5.57031 24.8832 12.4416Z" fill="white"/>
<g clip-path="url(#clip0_66_36966)">
<path d="M6.2793 15.9757C6.33915 15.9174 6.37275 15.8374 6.37243 15.7538L6.37243 14.1263C6.37243 13.9993 6.47536 13.8964 6.60232 13.8964L11.692 13.8964C11.8621 13.8964 12 13.7585 12 13.5883L12 10.4205C12 10.2504 11.8621 10.1125 11.692 10.1125L6.60232 10.1125C6.47536 10.1125 6.37243 10.0095 6.37243 9.88257L6.37243 8.25039C6.37564 8.08029 6.24036 7.93979 6.07027 7.93658C5.98512 7.93496 5.90309 7.96869 5.8437 8.0297L2.09198 11.7814C2.03401 11.8385 2.00095 11.9162 2.00002 11.9975C1.99972 12.0805 2.03287 12.16 2.09198 12.2182L5.8437 15.9699C5.96238 16.0918 6.1574 16.0944 6.2793 15.9757Z" fill="#F97830"/>
</g>
<g clip-path="url(#clip1_66_36966)">
<path d="M18.7207 15.9757C18.6609 15.9174 18.6273 15.8374 18.6276 15.7538L18.6276 14.1263C18.6276 13.9993 18.5246 13.8964 18.3977 13.8964L13.308 13.8964C13.1379 13.8964 13 13.7585 13 13.5883L13 10.4205C13 10.2504 13.1379 10.1125 13.308 10.1125L18.3977 10.1125C18.5246 10.1125 18.6276 10.0095 18.6276 9.88257L18.6276 8.25039C18.6244 8.08029 18.7596 7.93979 18.9297 7.93658C19.0149 7.93496 19.0969 7.96869 19.1563 8.0297L22.908 11.7814C22.966 11.8385 22.9991 11.9162 23 11.9975C23.0003 12.0805 22.9671 12.16 22.908 12.2182L19.1563 15.9699C19.0376 16.0918 18.8426 16.0944 18.7207 15.9757Z" fill="#F97830"/>
</g>
<defs>
<clipPath id="clip0_66_36966">
<rect width="10" height="10" fill="white" transform="translate(12 7) rotate(90)"/>
</clipPath>
<clipPath id="clip1_66_36966">
<rect width="10" height="10" fill="white" transform="matrix(4.37114e-08 1 1 -4.37114e-08 13 7)"/>
</clipPath>
</defs>
</svg>
