<svg width="25" height="25" viewBox="0 0 25 25" fill="none" xmlns="http://www.w3.org/2000/svg">
<path d="M24.8832 12.4416C24.8832 19.3129 19.3129 24.8832 12.4416 24.8832C5.57031 24.8832 0 19.3129 0 12.4416C0 5.57031 5.57031 0 12.4416 0C19.3129 0 24.8832 5.57031 24.8832 12.4416Z" fill="white"/>
<line x1="5" y1="17.5" x2="11" y2="17.5" stroke="#1B6FB7"/>
<line x1="5" y1="12.5" x2="11" y2="12.5" stroke="#1B6FB7"/>
<path d="M9.5002 18.5C8.33357 18.1666 6.10029 16.8999 6.5002 14.5C7.00008 11.5001 9.5002 12 9.5002 9.5C9.5002 7.5 7.5002 6.66667 6.5002 6.5" stroke="#1B6FB7"/>
<line x1="5" y1="7.5" x2="11" y2="7.5" stroke="#1B6FB7"/>
<path d="M12.5 21C13.6162 21 14.7215 20.7801 15.7528 20.353C16.7841 19.9258 17.7211 19.2997 18.5104 18.5104C19.2997 17.7211 19.9258 16.7841 20.353 15.7528C20.7801 14.7215 21 13.6162 21 12.5C21 11.3838 20.7801 10.2785 20.353 9.24719C19.9258 8.21592 19.2997 7.27889 18.5104 6.48959C17.7211 5.70029 16.7841 5.07419 15.7528 4.64702C14.7215 4.21986 13.6162 4 12.5 4L12.5 12.5L12.5 21Z" fill="#1B6FB7"/>
</svg>
