<svg width="25" height="25" viewBox="0 0 25 25" fill="none" xmlns="http://www.w3.org/2000/svg">
<path d="M24.8832 12.4416C24.8832 19.3129 19.3129 24.8832 12.4416 24.8832C5.57031 24.8832 0 19.3129 0 12.4416C0 5.57031 5.57031 0 12.4416 0C19.3129 0 24.8832 5.57031 24.8832 12.4416Z" fill="white"/>
<rect x="4" y="4" width="17" height="17" rx="2" fill="#ED1927"/>
<path d="M8.59 15.066C8.298 15.066 8.054 15.01 7.858 14.898C7.662 14.782 7.514 14.614 7.414 14.394C7.314 14.174 7.258 13.904 7.246 13.584L8.008 13.434C8.016 13.622 8.038 13.788 8.074 13.932C8.114 14.076 8.172 14.188 8.248 14.268C8.328 14.344 8.432 14.382 8.56 14.382C8.704 14.382 8.806 14.34 8.866 14.256C8.926 14.168 8.956 14.058 8.956 13.926C8.956 13.714 8.908 13.54 8.812 13.404C8.716 13.268 8.588 13.132 8.428 12.996L7.816 12.456C7.644 12.308 7.506 12.144 7.402 11.964C7.302 11.78 7.252 11.554 7.252 11.286C7.252 10.902 7.364 10.606 7.588 10.398C7.812 10.19 8.118 10.086 8.506 10.086C8.734 10.086 8.924 10.122 9.076 10.194C9.228 10.262 9.348 10.358 9.436 10.482C9.528 10.606 9.596 10.748 9.64 10.908C9.684 11.064 9.712 11.23 9.724 11.406L8.968 11.538C8.96 11.386 8.942 11.25 8.914 11.13C8.89 11.01 8.844 10.916 8.776 10.848C8.712 10.78 8.616 10.746 8.488 10.746C8.356 10.746 8.254 10.79 8.182 10.878C8.114 10.962 8.08 11.068 8.08 11.196C8.08 11.36 8.114 11.496 8.182 11.604C8.25 11.708 8.348 11.816 8.476 11.928L9.082 12.462C9.282 12.63 9.452 12.828 9.592 13.056C9.736 13.28 9.808 13.552 9.808 13.872C9.808 14.104 9.756 14.31 9.652 14.49C9.552 14.67 9.41 14.812 9.226 14.916C9.046 15.016 8.834 15.066 8.59 15.066ZM10.8168 15V10.794H10.0428V10.14H12.4668V10.794H11.7048V15H10.8168ZM14.2055 15.066C13.8615 15.066 13.5875 15.002 13.3835 14.874C13.1795 14.746 13.0335 14.562 12.9455 14.322C12.8575 14.082 12.8135 13.798 12.8135 13.47V11.652C12.8135 11.324 12.8575 11.044 12.9455 10.812C13.0335 10.576 13.1795 10.396 13.3835 10.272C13.5875 10.148 13.8615 10.086 14.2055 10.086C14.5575 10.086 14.8335 10.148 15.0335 10.272C15.2375 10.396 15.3835 10.576 15.4715 10.812C15.5635 11.044 15.6095 11.324 15.6095 11.652V13.476C15.6095 13.8 15.5635 14.082 15.4715 14.322C15.3835 14.558 15.2375 14.742 15.0335 14.874C14.8335 15.002 14.5575 15.066 14.2055 15.066ZM14.2055 14.412C14.3535 14.412 14.4615 14.38 14.5295 14.316C14.6015 14.252 14.6495 14.164 14.6735 14.052C14.6975 13.94 14.7095 13.818 14.7095 13.686V11.448C14.7095 11.312 14.6975 11.19 14.6735 11.082C14.6495 10.974 14.6015 10.89 14.5295 10.83C14.4615 10.766 14.3535 10.734 14.2055 10.734C14.0655 10.734 13.9595 10.766 13.8875 10.83C13.8155 10.89 13.7675 10.974 13.7435 11.082C13.7195 11.19 13.7075 11.312 13.7075 11.448V13.686C13.7075 13.818 13.7175 13.94 13.7375 14.052C13.7615 14.164 13.8095 14.252 13.8815 14.316C13.9535 14.38 14.0615 14.412 14.2055 14.412ZM16.2664 15V10.14H17.6944C17.9864 10.14 18.2224 10.194 18.4024 10.302C18.5864 10.41 18.7204 10.568 18.8044 10.776C18.8924 10.98 18.9364 11.228 18.9364 11.52C18.9364 11.836 18.8824 12.092 18.7744 12.288C18.6664 12.48 18.5144 12.62 18.3184 12.708C18.1264 12.796 17.8984 12.84 17.6344 12.84H17.1544V15H16.2664ZM17.1544 12.216H17.4904C17.6504 12.216 17.7744 12.194 17.8624 12.15C17.9544 12.102 18.0164 12.028 18.0484 11.928C18.0844 11.824 18.1024 11.686 18.1024 11.514C18.1024 11.338 18.0884 11.196 18.0604 11.088C18.0364 10.976 17.9804 10.894 17.8924 10.842C17.8084 10.79 17.6744 10.764 17.4904 10.764H17.1544V12.216Z" fill="white"/>
</svg>
