<svg width="25" height="25" viewBox="0 0 25 25" fill="none" xmlns="http://www.w3.org/2000/svg">
<path d="M24.8832 12.4416C24.8832 19.3129 19.3129 24.8832 12.4416 24.8832C5.57031 24.8832 0 19.3129 0 12.4416C0 5.57031 5.57031 0 12.4416 0C19.3129 0 24.8832 5.57031 24.8832 12.4416Z" fill="white"/>
<path d="M16.4078 17.9708H14.4142L14.4273 16.7783H16.4078C17.0898 16.7783 17.6582 16.6138 18.1128 16.2846C18.5675 15.9504 18.9085 15.4845 19.1359 14.887C19.3676 14.2844 19.4834 13.5806 19.4834 12.7754V12.0994C19.4834 11.4665 19.4179 10.9044 19.2867 10.4132C19.1555 9.91695 18.9632 9.4992 18.7096 9.15992C18.456 8.81559 18.1456 8.55481 17.7784 8.37758C17.4155 8.20034 16.998 8.11173 16.5258 8.11173H14.3748V6.91162H16.5258C17.151 6.91162 17.7215 7.03315 18.2374 7.27621C18.7533 7.51421 19.1971 7.86107 19.5687 8.31681C19.9447 8.76748 20.2332 9.31437 20.4343 9.95746C20.6354 10.5955 20.736 11.3145 20.736 12.1146V12.7754C20.736 13.5755 20.6354 14.2971 20.4343 14.9402C20.2332 15.5782 19.9425 16.1226 19.5621 16.5732C19.1861 17.0239 18.7315 17.3708 18.1981 17.6138C17.6691 17.8518 17.0723 17.9708 16.4078 17.9708ZM15.0896 6.91162V17.9708H13.824V6.91162H15.0896Z" fill="#1B6FB7"/>
<path d="M4.14722 8.29443L12.4416 8.29444L12.4416 9.12388L4.14722 9.12388L4.14722 8.29443Z" fill="#1B6FB7"/>
<path d="M4.14722 11.0596L12.4416 11.0596L12.4416 11.889L4.14722 11.889L4.14722 11.0596Z" fill="#1B6FB7"/>
<path d="M4.14722 13.8237L12.4416 13.8237L12.4416 14.6532L4.14722 14.6532L4.14722 13.8237Z" fill="#1B6FB7"/>
<path d="M4.14722 16.5889L12.4416 16.5889L12.4416 17.4183L4.14722 17.4183L4.14722 16.5889Z" fill="#1B6FB7"/>
</svg>
