<svg width="25" height="25" viewBox="0 0 25 25" fill="none" xmlns="http://www.w3.org/2000/svg">
<path d="M24.8832 12.4416C24.8832 19.3129 19.3129 24.8832 12.4416 24.8832C5.57031 24.8832 0 19.3129 0 12.4416C0 5.57031 5.57031 0 12.4416 0C19.3129 0 24.8832 5.57031 24.8832 12.4416Z" fill="white"/>
<path d="M9.936 12V3.54H15.516V4.752H11.484V7.152H15.24V8.364H11.484V12H9.936Z" fill="#F97830"/>
<g clip-path="url(#clip0_70_198)">
<path d="M6.2793 18.976C6.33915 18.9177 6.37275 18.8376 6.37243 18.7541L6.37243 17.1265C6.37243 16.9995 6.47536 16.8966 6.60232 16.8966L11.692 16.8966C11.8621 16.8966 12 16.7587 12 16.5886L12 13.4207C12 13.2506 11.8621 13.1127 11.692 13.1127L6.60232 13.1127C6.47536 13.1127 6.37243 13.0098 6.37243 12.8828L6.37243 11.2506C6.37564 11.0805 6.24036 10.94 6.07027 10.9368C5.98512 10.9352 5.90309 10.9689 5.8437 11.0299L2.09198 14.7817C2.03401 14.8387 2.00095 14.9164 2.00002 14.9978C1.99972 15.0807 2.03287 15.1603 2.09198 15.2185L5.8437 18.9702C5.96238 19.0921 6.1574 19.0946 6.2793 18.976Z" fill="#F97830"/>
</g>
<g clip-path="url(#clip1_70_198)">
<path d="M18.7207 18.976C18.6609 18.9177 18.6273 18.8376 18.6276 18.7541L18.6276 17.1265C18.6276 16.9995 18.5246 16.8966 18.3977 16.8966L13.308 16.8966C13.1379 16.8966 13 16.7587 13 16.5886L13 13.4207C13 13.2506 13.1379 13.1127 13.308 13.1127L18.3977 13.1127C18.5246 13.1127 18.6276 13.0098 18.6276 12.8828L18.6276 11.2506C18.6244 11.0805 18.7596 10.94 18.9297 10.9368C19.0149 10.9352 19.0969 10.9689 19.1563 11.0299L22.908 14.7817C22.966 14.8387 22.9991 14.9164 23 14.9978C23.0003 15.0807 22.9671 15.1603 22.908 15.2185L19.1563 18.9702C19.0376 19.0921 18.8426 19.0946 18.7207 18.976Z" fill="#F97830"/>
</g>
<defs>
<clipPath id="clip0_70_198">
<rect width="10" height="10" fill="white" transform="translate(12 10) rotate(90)"/>
</clipPath>
<clipPath id="clip1_70_198">
<rect width="10" height="10" fill="white" transform="matrix(4.37114e-08 1 1 -4.37114e-08 13 10)"/>
</clipPath>
</defs>
</svg>
