<svg width="25" height="25" viewBox="0 0 25 25" fill="none" xmlns="http://www.w3.org/2000/svg">
<path d="M24.8832 12.4416C24.8832 19.3129 19.3129 24.8832 12.4416 24.8832C5.57031 24.8832 0 19.3129 0 12.4416C0 5.57031 5.57031 0 12.4416 0C19.3129 0 24.8832 5.57031 24.8832 12.4416Z" fill="white"/>
<path d="M9.732 21V11.28H12.12C12.552 11.28 12.94 11.32 13.284 11.4C13.636 11.48 13.936 11.616 14.184 11.808C14.44 11.992 14.636 12.244 14.772 12.564C14.908 12.884 14.976 13.288 14.976 13.776C14.976 14.168 14.92 14.504 14.808 14.784C14.704 15.064 14.548 15.288 14.34 15.456C14.132 15.616 13.872 15.724 13.56 15.78C13.944 15.844 14.26 15.98 14.508 16.188C14.764 16.388 14.952 16.652 15.072 16.98C15.2 17.308 15.264 17.704 15.264 18.168C15.264 18.632 15.204 19.044 15.084 19.404C14.972 19.756 14.8 20.052 14.568 20.292C14.344 20.524 14.06 20.7 13.716 20.82C13.38 20.94 12.984 21 12.528 21H9.732ZM11.508 19.752H12.18C12.716 19.752 13.08 19.624 13.272 19.368C13.464 19.104 13.56 18.7 13.56 18.156C13.56 17.764 13.512 17.448 13.416 17.208C13.328 16.96 13.176 16.776 12.96 16.656C12.752 16.536 12.472 16.476 12.12 16.476H11.508V19.752ZM11.508 15.252H12.108C12.46 15.252 12.732 15.2 12.924 15.096C13.116 14.992 13.248 14.832 13.32 14.616C13.4 14.4 13.44 14.128 13.44 13.8C13.44 13.456 13.38 13.192 13.26 13.008C13.148 12.816 12.976 12.688 12.744 12.624C12.512 12.552 12.216 12.516 11.856 12.516H11.508V15.252Z" fill="#FFA331"/>
<g clip-path="url(#clip0_416_148)">
<path d="M7.56515 11.5472C7.62746 11.5244 7.66812 11.4714 7.66812 11.4125L7.66812 9.81496L11.8334 9.81496C11.9254 9.81496 12 9.74964 12 9.66917L12 7.33661C12 7.25614 11.9254 7.19082 11.8334 7.19082L7.6681 7.19082L7.6681 5.58719C7.6681 5.5283 7.62745 5.47523 7.56547 5.45249C7.50316 5.43003 7.43151 5.44228 7.38385 5.48398L4.04897 8.39238C4.01765 8.41978 3.99999 8.45682 3.99999 8.4956C3.99999 8.53437 4.01765 8.57141 4.04864 8.59881L7.38353 11.5157C7.4312 11.5574 7.50283 11.5699 7.56515 11.5472Z" fill="#FFA331"/>
</g>
<g clip-path="url(#clip1_416_148)">
<path d="M17.4348 5.45284C17.3725 5.47558 17.3319 5.52865 17.3319 5.58754L17.3319 7.18504L13.1666 7.18504C13.0746 7.18504 13 7.25036 13 7.33083L13 9.66339C13 9.74386 13.0746 9.80918 13.1666 9.80918L17.3319 9.80918L17.3319 11.4128C17.3319 11.4717 17.3726 11.5248 17.4345 11.5475C17.4968 11.57 17.5685 11.5577 17.6161 11.516L20.951 8.60762C20.9823 8.58022 21 8.54318 21 8.5044C21 8.46563 20.9823 8.42859 20.9514 8.40119L17.6165 5.48433C17.5688 5.44263 17.4972 5.43009 17.4348 5.45284Z" fill="#FFA331"/>
</g>
<defs>
<clipPath id="clip0_416_148">
<rect width="7" height="8" fill="white" transform="translate(12 5) rotate(90)"/>
</clipPath>
<clipPath id="clip1_416_148">
<rect width="7" height="8" fill="white" transform="translate(13 12) rotate(-90)"/>
</clipPath>
</defs>
</svg>
