<svg width="25" height="25" viewBox="0 0 25 25" fill="none" xmlns="http://www.w3.org/2000/svg">
<path d="M24.8832 12.4416C24.8832 19.3129 19.3129 24.8832 12.4416 24.8832C5.57031 24.8832 0 19.3129 0 12.4416C0 5.57031 5.57031 0 12.4416 0C19.3129 0 24.8832 5.57031 24.8832 12.4416Z" fill="white"/>
<path d="M9.83 16V8.95H12.81C13.5633 8.95 14.1467 9.13 14.56 9.49C14.9733 9.84333 15.18 10.34 15.18 10.98C15.18 11.4 15.0867 11.76 14.9 12.06C14.7133 12.36 14.45 12.59 14.11 12.75C13.77 12.9033 13.37 12.98 12.91 12.98L13.07 12.82H13.34C13.6133 12.82 13.8567 12.89 14.07 13.03C14.29 13.17 14.47 13.3933 14.61 13.7L15.62 16H14.48L13.48 13.69C13.38 13.4167 13.2233 13.24 13.01 13.16C12.8033 13.08 12.5467 13.04 12.24 13.04H10.87V16H9.83ZM10.87 12.25H12.64C13.14 12.25 13.5167 12.1433 13.77 11.93C14.03 11.7167 14.16 11.41 14.16 11.01C14.16 10.6033 14.03 10.2967 13.77 10.09C13.5167 9.88333 13.14 9.78 12.64 9.78H10.87V12.25Z" fill="#1B6FB7"/>
<rect x="5.5" y="5.5" width="14" height="14" rx="1.5" stroke="#1B6FB7"/>
</svg>
