<svg width="826" height="576" viewBox="0 0 826 576" fill="none" xmlns="http://www.w3.org/2000/svg">
<path d="M619.998 294.198H639.9C650.816 294.683 645.063 320.85 634.147 320.364H618.284L607.436 314.591L619.998 294.198Z" fill="#404344"/>
<path d="M565.229 300.729C545.208 299.565 510.632 304.077 481.885 307.331L248.305 294.923L245.704 307.331L467.24 326.325H555.811L565.229 300.729Z" fill="#798896"/>
<g opacity="0.54">
<path opacity="0.54" d="M206.178 343.559L652.91 368.629L646.629 312.584C646.629 312.584 599.813 272.621 552.794 256.596C530.362 248.951 493.975 240.957 413.549 240.957C341.017 240.957 318.485 244.006 296.196 251.514C250.763 266.818 232.645 284.789 208.568 302.973L206.178 343.559Z" fill="#F7F7F6"/>
</g>
<path d="M507.799 304.361C493.145 272.544 482.161 253.576 468.984 242.036L464.146 244.684C473.728 258.121 486.303 280.749 491.389 309.405L507.799 304.361Z" fill="#939295"/>
<path d="M485.973 300.729L476.317 288.885L464.494 284.391C469.059 283.227 464.863 268.968 460.298 267.815C460.298 267.815 439.78 265.839 436.253 269.381C432.724 272.923 435.806 282.551 435.806 282.551C435.806 282.551 431.881 283.416 426.432 288.886C420.982 294.356 423.301 309.406 423.301 309.406H417.202C417.202 309.406 416.145 291.99 411.71 287.537C407.275 283.085 395.54 284.74 395.54 284.74C395.54 284.74 393.951 274.291 388.429 268.747C382.907 263.204 370.052 264.41 364.935 269.548C359.817 274.685 359.952 284.812 359.952 284.812L348.714 287.243V310.625L473.914 322.439L485.973 300.729Z" fill="#939295"/>
<path d="M428.796 251.514C403.217 255.134 386.174 280.16 383.934 294.923L350.239 288.885C364.023 271.101 383.663 254.312 403.756 247.948L428.796 251.514Z" fill="#939295"/>
<path d="M246.837 300.803L263.746 291.246C290.745 285.208 334.687 285.439 381.616 286.775L383.934 314.683H245.703L246.837 300.803Z" fill="#939295"/>
<path d="M627.398 309.887C597.425 283.436 570.649 267.793 538.919 259.048C507.673 253.353 351.978 256.98 300.631 257.557C323.845 244.933 366.52 238.699 442.389 243.36L546.578 253.556C584.028 268.172 615.334 288.332 646.629 312.584L627.398 309.887Z" fill="#F7F7F6"/>
<path d="M609.428 307.154C609.428 307.154 563.62 286.54 539.129 291.788C514.638 297.035 510.556 315.923 510.556 315.923C545.874 316.756 608.112 318.892 609.428 307.154Z" fill="#939295"/>
<path d="M526.017 327.381C514.917 327.381 505.886 318.316 505.886 307.173C505.886 296.029 514.917 286.965 526.017 286.965C537.117 286.965 546.147 296.029 546.147 307.173C546.147 318.316 537.117 327.381 526.017 327.381ZM526.017 290.806C517.027 290.806 509.713 298.148 509.713 307.173C509.713 316.197 517.027 323.539 526.017 323.539C535.007 323.539 542.322 316.197 542.322 307.173C542.322 298.148 535.007 290.806 526.017 290.806Z" fill="#939295"/>
<path d="M632.347 302.36L389.517 288.885L386.29 305.915C452.645 316.798 533.935 321.257 630.072 322.438L632.347 302.36Z" fill="#939295"/>
<path d="M395.733 466C414.2 466 429.17 444.812 429.17 418.674C429.17 392.537 414.2 371.348 395.733 371.348C377.266 371.348 362.296 392.537 362.296 418.674C362.296 444.812 377.266 466 395.733 466Z" fill="#404344"/>
<path d="M395.733 371.348H372.134V466H395.733V371.348Z" fill="#404344"/>
<path d="M372.134 466C390.601 466 405.572 444.812 405.572 418.674C405.572 392.537 390.601 371.348 372.134 371.348C353.667 371.348 338.697 392.537 338.697 418.674C338.697 444.812 353.667 466 372.134 466Z" fill="#1C1C1C"/>
<path d="M691.13 466C709.597 466 724.568 444.812 724.568 418.674C724.568 392.537 709.597 371.348 691.13 371.348C672.663 371.348 657.693 392.537 657.693 418.674C657.693 444.812 672.663 466 691.13 466Z" fill="#404344"/>
<path d="M691.131 371.348H667.532V466H691.131V371.348Z" fill="#404344"/>
<path d="M667.532 466C685.999 466 700.97 444.812 700.97 418.674C700.97 392.537 685.999 371.348 667.532 371.348C649.065 371.348 634.095 392.537 634.095 418.674C634.095 444.812 649.065 466 667.532 466Z" fill="#1C1C1C"/>
<path d="M184.401 433.379C187.885 436.876 308.738 436.053 441.925 436.786C594.896 437.627 761.197 437.782 765.611 433.351L743.328 346.663H168.854L160.992 396.691C165.498 416.58 173.203 426.158 184.401 433.379Z" fill="#1C1C1C"/>
<path d="M242.748 466C261.215 466 276.185 444.812 276.185 418.674C276.185 392.537 261.215 371.348 242.748 371.348C224.281 371.348 209.31 392.537 209.31 418.674C209.31 444.812 224.281 466 242.748 466Z" fill="#1C1C1C"/>
<path d="M242.748 371.348H219.149V466H242.748V371.348Z" fill="#1C1C1C"/>
<path d="M219.149 466C237.616 466 252.587 444.812 252.587 418.674C252.587 392.537 237.616 371.348 219.149 371.348C200.682 371.348 185.712 392.537 185.712 418.674C185.712 444.812 200.682 466 219.149 466Z" fill="#404344"/>
<path d="M218.145 452.353C231.286 452.353 241.94 437.275 241.94 418.674C241.94 400.074 231.286 384.995 218.145 384.995C205.003 384.995 194.35 400.074 194.35 418.674C194.35 437.275 205.003 452.353 218.145 452.353Z" fill="#EFEFEF"/>
<path d="M218.145 446.835C229.133 446.835 238.041 434.227 238.041 418.674C238.041 403.122 229.133 390.514 218.145 390.514C207.156 390.514 198.249 403.122 198.249 418.674C198.249 434.227 207.156 446.835 218.145 446.835Z" fill="#6A6F71"/>
<path d="M219.711 436.99C226.774 436.99 232.499 428.887 232.499 418.891C232.499 408.896 226.774 400.792 219.711 400.792C212.649 400.792 206.924 408.896 206.924 418.891C206.924 428.887 212.649 436.99 219.711 436.99Z" fill="#818A8E"/>
<path d="M208.069 398.057C205.175 402.313 202.805 407.161 202.245 412.805L210.258 414.463L209.967 417.097L198.514 414.087C199.41 406.789 202.375 399.899 207.258 395.106L208.069 398.057Z" fill="#939A9D"/>
<path d="M217.273 411.349L214.937 410.754L211.628 392.052C213.696 391.004 216.132 390.429 219.086 390.514C216.887 390.847 215.357 391.558 215.357 391.558L218.273 409.631L217.273 411.349Z" fill="#939A9D"/>
<path d="M231.455 397.744L220.923 412.395L223.299 418.892L238.041 418.674V417.326L226.154 415.44L225.09 412.487L232.756 399.563L231.455 397.744Z" fill="#939A9D"/>
<path d="M201.069 419.465C201.396 424.796 202.796 429.342 204.866 433.399L202.967 436.876C199.843 431.37 198.27 425.456 198.252 419.133L201.069 419.465Z" fill="#939A9D"/>
<path d="M215.654 428.311L209.567 440.534C213.213 444.105 217.103 445.095 221.068 445.307L221.385 446.46C216.08 447.636 210.979 446.174 206.178 441.174L212.553 427.159L215.654 428.311Z" fill="#939A9D"/>
<path d="M226.023 421.39C226.023 422.772 224.573 426.194 223.438 427.319L228.28 442.906L226.059 444.514L219.337 426.414C220.05 425.52 222.45 422.78 222.929 421.024L226.023 421.39Z" fill="#939A9D"/>
<path d="M221.467 450.583L214.738 419.127L204.943 390.532L211.795 388.632L216.597 418.639L228.307 448.686L221.467 450.583ZM219.086 430.294L222.912 448.189L225.754 447.402L219.086 430.294ZM207.414 391.838L212.963 408.038L210.244 391.054L207.414 391.838Z" fill="#EFEFEF"/>
<path d="M205.92 443.789L200.603 438.681L214.848 418.392L228.551 390.704L234.684 394.304L216.504 419.372L205.92 443.789ZM203.116 438.436L205.26 440.496L211.055 427.13L203.116 438.436ZM229.354 393.4L221.576 409.117L231.893 394.891L229.354 393.4Z" fill="#EFEFEF"/>
<path d="M240.427 425.176L215.567 419.852H195.337L194.743 412.501L215.791 417.932L241.261 418.055L240.427 425.176ZM224.946 419.897L238.772 422.858L239.112 419.965L224.946 419.897ZM197.101 417.932H208.105L196.866 415.032L197.101 417.932Z" fill="#EFEFEF"/>
<path d="M215.669 429.691C219.883 429.691 223.299 424.856 223.299 418.891C223.299 412.927 219.883 408.092 215.669 408.092C211.455 408.092 208.039 412.927 208.039 418.891C208.039 424.856 211.455 429.691 215.669 429.691Z" fill="#EFEFEF"/>
<path d="M538.92 466C557.387 466 572.358 444.812 572.358 418.674C572.358 392.537 557.387 371.348 538.92 371.348C520.453 371.348 505.483 392.537 505.483 418.674C505.483 444.812 520.453 466 538.92 466Z" fill="#1C1C1C"/>
<path d="M538.92 371.348H515.322V466H538.92V371.348Z" fill="#1C1C1C"/>
<path d="M515.322 466C533.789 466 548.759 444.812 548.759 418.674C548.759 392.537 533.789 371.348 515.322 371.348C496.855 371.348 481.884 392.537 481.884 418.674C481.884 444.812 496.855 466 515.322 466Z" fill="#404344"/>
<path d="M514.317 452.353C527.459 452.353 538.112 437.275 538.112 418.674C538.112 400.074 527.459 384.995 514.317 384.995C501.176 384.995 490.522 400.074 490.522 418.674C490.522 437.275 501.176 452.353 514.317 452.353Z" fill="#EFEFEF"/>
<path d="M514.317 446.835C525.306 446.835 534.214 434.227 534.214 418.674C534.214 403.122 525.306 390.514 514.317 390.514C503.329 390.514 494.421 403.122 494.421 418.674C494.421 434.227 503.329 446.835 514.317 446.835Z" fill="#6A6F71"/>
<path d="M515.883 436.99C522.945 436.99 528.67 428.887 528.67 418.891C528.67 408.896 522.945 400.792 515.883 400.792C508.82 400.792 503.095 408.896 503.095 418.891C503.095 428.887 508.82 436.99 515.883 436.99Z" fill="#818A8E"/>
<path d="M504.241 398.057C501.347 402.313 498.977 407.161 498.417 412.805L506.429 414.463L506.139 417.097L494.686 414.087C495.581 406.789 498.547 399.899 503.429 395.106L504.241 398.057Z" fill="#939A9D"/>
<path d="M513.445 411.349L511.108 410.754L507.799 392.052C509.868 391.004 512.304 390.429 515.257 390.514C513.058 390.847 511.528 391.558 511.528 391.558L514.444 409.631L513.445 411.349Z" fill="#939A9D"/>
<path d="M527.627 397.744L517.095 412.395L519.471 418.892L534.214 418.674V417.326L522.326 415.44L521.263 412.487L528.929 399.563L527.627 397.744Z" fill="#939A9D"/>
<path d="M497.242 419.465C497.568 424.796 498.968 429.342 501.038 433.399L499.139 436.876C496.015 431.37 494.443 425.456 494.425 419.133L497.242 419.465Z" fill="#939A9D"/>
<path d="M511.825 428.311L505.738 440.534C509.384 444.105 513.275 445.095 517.239 445.307L517.556 446.46C512.252 447.636 507.151 446.174 502.35 441.174L508.725 427.159L511.825 428.311Z" fill="#939A9D"/>
<path d="M522.196 421.39C522.196 422.772 520.745 426.194 519.611 427.319L524.452 442.906L522.232 444.514L515.51 426.414C516.223 425.52 518.623 422.78 519.102 421.024L522.196 421.39Z" fill="#939A9D"/>
<path d="M517.64 450.583L510.91 419.127L501.116 390.532L507.967 388.632L512.77 418.639L524.48 448.686L517.64 450.583ZM515.258 430.294L519.085 448.189L521.926 447.402L515.258 430.294ZM503.586 391.838L509.135 408.038L506.416 391.054L503.586 391.838Z" fill="#EFEFEF"/>
<path d="M502.093 443.789L496.775 438.681L511.02 418.392L524.724 390.704L530.857 394.304L512.677 419.372L502.093 443.789ZM499.288 438.436L501.433 440.496L507.228 427.13L499.288 438.436ZM525.525 393.4L517.747 409.117L528.065 394.891L525.525 393.4Z" fill="#EFEFEF"/>
<path d="M536.599 425.176L511.74 419.852H491.51L490.915 412.501L511.964 417.932L537.434 418.055L536.599 425.176ZM521.118 419.897L534.945 422.858L535.284 419.965L521.118 419.897ZM493.273 417.932H504.277L493.039 415.032L493.273 417.932Z" fill="#EFEFEF"/>
<path d="M511.841 429.691C516.055 429.691 519.471 424.856 519.471 418.891C519.471 412.927 516.055 408.092 511.841 408.092C507.628 408.092 504.212 412.927 504.212 418.891C504.212 424.856 507.628 429.691 511.841 429.691Z" fill="#EFEFEF"/>
<path d="M772 381.933L762.035 361.222C762.356 349.127 760.262 339.458 754.419 333.557C704.382 320.979 651.354 312.584 651.354 312.584C651.354 312.584 599.812 270.911 552.794 254.885C530.363 247.239 493.975 239 413.549 239C341.018 239 318.485 242.213 296.197 249.72C250.764 265.024 230.41 282.545 206.332 300.728L171.017 304.718C163.667 317.8 158.691 338.215 157.375 357.324L146 372.141C146.158 397.494 146.945 415.41 157.133 422.178L184.401 433.379C174.602 429.353 167.164 374.355 209.567 358.273C248.747 356.267 262.281 389.74 268.473 433.374L480.768 433.379C464.251 426.522 471.77 361.892 509.963 358.043C542.379 359.097 556.125 388.277 566.846 433.379L642.832 433.352L664.727 416.595H762.223L765.61 433.352L767.421 426.522L764.034 409.408L767.721 396.692L772 381.933ZM258.388 299.163C272.47 275.675 313.398 250.207 376.667 254.022C427.988 257.116 461.515 309.887 461.515 309.887L258.388 299.163ZM641.936 312.584H502.004C484.727 295.24 447.637 258.988 419.875 249.127C490.924 248.779 540.147 253.704 538.963 253.64C582.473 264.882 616.48 294.632 641.936 312.584Z" fill="#B3B4B6"/>
<path d="M772 381.933L767.721 396.692L764.034 409.408L767.421 426.522L765.61 433.352L762.223 416.595H664.727L642.832 433.352L566.846 433.379C556.125 388.278 542.378 359.098 509.963 358.044C471.77 361.892 464.251 426.521 480.768 433.379L268.473 433.374C262.282 389.74 248.747 356.267 209.567 358.273C167.164 374.354 174.602 429.353 184.401 433.379L157.133 422.178C146.945 415.41 146.158 397.494 146 372.141C159.58 377.862 171.185 368.48 181.954 358.395C185.818 354.777 188.943 350.358 193.175 347.181C200.983 341.322 211.453 340.493 221.165 341.343C239.291 342.928 252.817 356.338 266.276 368.629C269.503 371.577 273.643 375.736 282.388 378.302C290.351 380.639 297.387 385.28 305.441 387.278C318.105 390.419 335.552 393.56 348.216 396.7C353.714 398.064 359.225 399.431 364.836 400.21C381.258 402.492 397.911 399.693 414.254 396.9C427.831 394.58 453.819 397.052 457.396 383.701C461.122 369.794 474.288 345.33 502.226 342.403C518.606 340.687 539.093 344.778 552.015 355.028C564.938 365.279 578.401 384.661 594.334 388.846C604.37 391.483 614.934 390.841 625.288 390.181C666.966 387.525 761.92 392.052 772 381.933Z" fill="#979797"/>
<path d="M157.134 422.178L184.402 433.379C184.402 433.379 180.261 430.04 179.784 419.614C178.884 399.966 184.527 361.321 214.51 361.321C248.157 361.321 258.402 400.792 260.724 421.207C262.106 433.352 268.473 433.379 268.473 433.379H480.768C480.768 433.379 476.628 430.04 476.15 419.614C475.25 399.966 480.893 361.321 510.876 361.321C544.523 361.321 554.768 400.792 557.09 421.207C558.472 433.352 566.846 433.379 566.846 433.379C575.884 433.501 602.211 420.776 593.509 403.85C593.509 403.85 585.829 413.204 577.424 415.604C571.778 417.215 564.452 418.029 563.981 410.742C563.981 410.742 557.955 355.247 509.962 355.247C478.299 355.247 466.344 389.844 469.505 421.209H270.481C270.481 421.209 261.956 355.247 214.509 355.247C171.92 355.247 174.417 419.133 174.417 419.133C174.418 422.027 167.128 423.398 157.134 422.178Z" fill="#B3B4B6"/>
<path d="M466.566 381.062C466.566 381.062 421.445 359.385 411.483 353.579C401.522 347.772 307.005 340.85 296.008 344.311C285.01 347.772 269.193 375.274 269.193 375.274L278.811 414.123L459.375 415.237L466.566 381.062Z" fill="#A0A2A4"/>
<path d="M283.82 414.022L304.316 408.104L400.341 408.189C400.341 408.189 461.892 416.436 461.939 416.448L283.82 414.022Z" fill="#8A8A8A"/>
<path d="M206.332 300.729C294.503 309.137 400.595 310.549 474.289 315.974C521.005 319.413 545.911 324.643 566.723 328.074C484.503 328.491 423.907 325.013 351.635 320.963C288.051 317.4 222.338 313.939 171.017 304.718L206.332 300.729Z" fill="#B3B4B6"/>
<path d="M271.034 330.053L257.093 328.892C254.238 328.655 252.117 326.139 252.354 323.274C252.59 320.408 255.097 318.278 257.95 318.517L271.891 319.677C274.746 319.915 276.868 322.431 276.63 325.295C276.394 328.16 273.888 330.29 271.034 330.053Z" fill="#9DA5AC"/>
<path d="M280.802 325.584C280.869 324.772 273.288 323.478 263.871 322.694C254.453 321.909 246.763 321.931 246.696 322.743C246.629 323.554 254.21 324.848 263.628 325.632C273.046 326.417 280.735 326.395 280.802 325.584Z" fill="#E3ECF2"/>
<path d="M378.078 338.631L364.137 337.471C361.283 337.233 359.161 334.717 359.398 331.853C359.635 328.987 362.141 326.857 364.995 327.095L378.936 328.256C381.79 328.493 383.912 331.009 383.675 333.874C383.438 336.74 380.932 338.869 378.078 338.631Z" fill="#9DA5AC"/>
<path d="M387.848 334.161C387.915 333.35 380.334 332.056 370.916 331.272C361.498 330.487 353.809 330.509 353.742 331.32C353.675 332.132 361.256 333.426 370.674 334.21C380.091 334.995 387.781 334.973 387.848 334.161Z" fill="#E3ECF2"/>
<path d="M380.736 249.704C304.049 244.48 263.226 275.681 248.304 304.719L474.289 315.973C474.289 315.974 433.787 253.319 380.736 249.704ZM376.667 254.022C427.988 257.116 461.515 309.887 461.515 309.887L258.388 299.163C272.47 275.676 313.399 250.207 376.667 254.022Z" fill="#353738"/>
<path d="M363.688 251.514C357.92 268.481 355.036 287.313 353.985 307.331H340.27C345.191 286.206 350.482 267.137 356.497 252.097L363.688 251.514Z" fill="#353738"/>
<path d="M347.031 309.668L346.402 309.573C350.099 284.976 354.702 265.178 360.474 249.047L361.072 249.263C355.315 265.353 350.721 285.112 347.031 309.668Z" fill="#252626"/>
<path d="M352.925 421.202L350.907 415.268L352.033 408.156C351.146 406.194 338.446 376.958 341.042 320.371L341.079 320.228L346.397 309.46L347.04 309.78L341.754 320.48C339.102 378.559 352.59 407.661 352.728 407.949L352.777 408.05L351.644 415.205L353.604 420.97L352.925 421.202Z" fill="#5591B6"/>
<path d="M166.489 314.419L174.087 326.599C169.867 332.277 165.323 335.924 160.241 336.19L158.002 324.284C158.002 324.284 158.539 314.419 166.489 314.419Z" fill="#8A1D3A"/>
<path d="M166.489 314.419L174.087 326.599C167.727 326.473 161.79 326.073 158.002 324.285C158.002 318.751 161.414 313.892 166.489 314.419Z" fill="#A1324D"/>
<g opacity="0.38">
<path opacity="0.38" d="M171.357 324.743C171.357 324.743 169.103 321.335 167.14 318.786C165.816 317.068 165.309 315.443 163.109 316.651C157.648 319.649 171.357 324.743 171.357 324.743Z" fill="white"/>
</g>
<path d="M270.124 421.239C270.108 421.059 268.377 403.028 257.501 383.695C256.836 382.512 256.179 381.355 255.532 380.218C245.293 362.182 237.894 349.151 241.349 314.383L241.359 314.292L248.273 304.006L248.867 304.409L242.055 314.545C238.643 349.018 245.991 361.956 256.156 379.861C256.803 381 257.46 382.157 258.125 383.34C269.081 402.814 270.821 420.994 270.838 421.175L270.124 421.239Z" fill="#5591B6"/>
<path d="M469.132 421.3C458.766 401.093 466.545 329.33 466.882 326.285L466.892 326.195L473.994 315.918L474.585 316.328L467.585 326.455C467.263 329.439 459.667 401.274 469.771 420.971L469.132 421.3Z" fill="#5591B6"/>
<path d="M469.451 420.812H270.481V421.532H469.451V420.812Z" fill="#4C80A4"/>
<path d="M762.035 361.222L772 381.933C772 381.933 708.057 384.504 674.548 383.446C626.96 381.944 574.762 372.071 566.723 328.074C584.077 347.406 641.823 361.112 641.823 361.112C690.112 367.024 741.663 366.808 762.035 361.222Z" fill="#C1C1C1"/>
<path d="M646.629 338.209C629.121 333.309 607.854 330.554 589.458 329.175C581.075 328.546 573.287 328.204 566.724 328.073C566.724 328.073 576.857 340.326 589.842 348.48C601.635 355.887 631.637 361.874 641.823 361.111L651.355 349.922L646.629 338.209Z" fill="#798896"/>
<ellipse cx="606.476" cy="342.698" rx="5.67218" ry="5.675" fill="#F2F2F2"/>
<ellipse cx="625.039" cy="347.857" rx="3.60956" ry="3.61136" fill="#F2F2F2"/>
<path d="M589.842 348.481C576.856 340.327 566.724 328.074 566.724 328.074C573.288 328.204 581.075 328.547 589.458 329.176L582.122 334.513L589.842 348.481Z" fill="#F97830"/>
<path d="M646.629 338.209L651.355 349.923C682.281 352.86 727.081 353.144 748.111 349.923L746.999 338.209C726.494 342.539 679.807 341.826 646.629 338.209Z" fill="#404344"/>
<path d="M746.81 338.209L754.42 333.557C760.126 338.092 761.913 348.425 762.036 361.222L748.111 349.923L746.81 338.209Z" fill="#798896"/>
<path d="M746.81 338.209L748.11 349.923L762.035 361.222L761.826 355.887L750.411 348.481L748.997 339.925L754.42 333.557L746.81 338.209Z" fill="#62707D"/>
<path d="M641.823 361.112L651.355 349.923L646.629 338.209C642.383 336.986 637.313 335.847 631.968 334.738L638.245 348.481L625.136 359.601C630.803 360.604 636.407 361.303 641.823 361.112Z" fill="#62707D"/>
<path d="M704.83 347.313C685.814 347.313 665.4 346.215 649.118 344.515L649.316 342.604C679.601 345.766 724.211 346.845 747.232 342.615L747.576 344.504C736.797 346.484 721.34 347.313 704.83 347.313Z" fill="#1C1C1C"/>
<path d="M644.186 341.246C620.867 335.667 597.711 331.217 575.212 331.329C588.567 347.751 609.55 355.042 633.622 358.631C633.622 358.631 591.303 348.867 583.219 334.512C596.83 333.474 620.107 337.165 644.186 341.246Z" fill="#E3ECF2"/>
<path d="M748.11 339.572L754.333 340.599L757.595 352.233L756.762 339.898L748.11 339.572Z" fill="#62707D"/>
<g opacity="0.38">
<path opacity="0.38" d="M638.246 356.694C638.246 356.694 648.019 352.498 645.575 343.067C643.132 333.635 573.179 329.439 573.179 329.439C573.179 329.439 632.019 341.457 635.223 346.346C638.493 351.336 638.246 356.694 638.246 356.694Z" fill="white"/>
</g>
<g opacity="0.38">
<path opacity="0.38" d="M753.655 336.459C754.728 335.382 756.293 336.441 758.121 340.635C761.064 347.389 761.115 358.079 761.115 358.079C761.115 358.079 760.075 349.909 756.767 343.152C754.996 339.536 751.656 338.466 753.655 336.459Z" fill="white"/>
</g>
<path d="M754.419 333.557C745.813 330.016 736.498 326.967 726.564 324.352C721.056 322.901 710.991 316.964 705.081 315.974C640.955 305.227 505.989 304.596 498.031 312.584L754.419 333.557Z" fill="#A0A2A4"/>
<path d="M705.082 315.974C710.992 316.964 721.057 322.901 726.565 324.352C678.754 328.474 618.64 324.277 557.917 315.974C617.534 315.504 674.276 316.393 705.082 315.974Z" fill="#A0A2A4"/>
<path d="M566.656 328.428C547.024 324.641 523.922 321.278 497.992 318.43L497.524 318.378L500.374 311.15L501.043 311.415L498.538 317.766C524.298 320.605 547.257 323.953 566.792 327.721L566.656 328.428Z" fill="#5591B6"/>
<path d="M455.996 294.198H432.167C419.096 294.683 420.257 320.85 433.328 320.364H452.321L465.31 314.591L455.996 294.198Z" fill="#353738"/>
<path d="M454.998 389.643H276.043C274.717 389.643 273.644 388.565 273.644 387.235C273.644 385.905 274.717 384.827 276.043 384.827H454.998C456.323 384.827 457.397 385.905 457.397 387.235C457.397 388.565 456.322 389.643 454.998 389.643Z" fill="#8E8F8F"/>
<path d="M772 381.933C745.176 382.987 665 383.544 618.545 380.198C587.088 377.932 565.813 374.988 555.793 364.93C556.957 388.037 646.334 411.521 765.611 409.409C770.644 402.994 771.624 395.084 772 381.933Z" fill="#979797"/>
<path d="M749.181 389.314H694.44V404.317H749.181V389.314Z" fill="white"/>
<path d="M694.44 386.811V389.315H749.181V404.317L753.307 386.811H694.44Z" fill="#898989"/>
<path d="M556.438 392.377L556.133 391.726L587.683 376.816L600.146 353.149L600.779 353.486L588.206 377.365L588.097 377.417L556.438 392.377Z" fill="#5591B6"/>
<path d="M765.61 433.352L767.421 426.522L765.61 409.408C756.452 408.613 695.732 408.035 662.749 408.204C633.695 408.352 587.944 415.603 587.944 415.603C588.158 421.297 582.885 427.93 566.846 433.379L642.832 433.352L664.727 416.595H761.303L765.61 433.352Z" fill="#B3B4B6"/>
<path d="M672.199 410.392C672.199 410.392 667.001 405.917 653.918 400.729C643.48 396.59 619.254 394.048 602.758 398.564C588.861 402.369 587.944 415.603 587.944 415.603H637.643L672.199 410.392Z" fill="#B3B4B6"/>
<path d="M587.944 415.602H637.643L652.83 404.331C658.065 405.871 662.123 408.665 662.123 408.665L642.539 423.076C616.483 424.105 587.944 422.86 587.944 415.602Z" fill="#C1C1C1"/>
<path d="M652.829 404.331C652.829 404.331 624.759 397.332 605.507 402.847C590.255 407.215 596.823 415.602 596.823 415.602C604.677 418.712 632.658 418.959 637.643 415.602L652.829 404.331Z" fill="#1C1C1C"/>
<path d="M618.516 416.505C621.612 416.505 624.122 413.314 624.122 409.379C624.122 405.443 621.612 402.252 618.516 402.252C615.42 402.252 612.91 405.443 612.91 409.379C612.91 413.314 615.42 416.505 618.516 416.505Z" fill="white"/>
<path d="M642.832 433.352L667.134 420.776H759.703L765.61 433.352L761.303 416.594H664.727L642.832 433.352Z" fill="#404344"/>
<path d="M497.545 334.927H503.99C505.046 334.927 505.955 335.82 505.955 336.987V340.154C505.955 341.321 505.046 342.214 503.99 342.214H497.545C496.489 342.214 495.58 341.321 495.58 340.154V336.987C495.58 335.82 496.489 334.927 497.545 334.927Z" fill="#F97830" stroke="white" stroke-width="2"/>
<path d="M625 241.5V240.5H624V241.5H625ZM625 344L630.774 334H619.226L625 344ZM818.5 240.5H625V242.5H818.5V240.5ZM624 241.5V335H626V241.5H624Z" fill="#1B6FB7"/>
<path d="M574.5 565V566H573.5V565H574.5ZM574.5 334.5L580.274 344.5H568.726L574.5 334.5ZM826 566H574.5V564H826V566ZM573.5 565V343.5H575.5V565H573.5Z" fill="#1B6FB7"/>
<path d="M385 574.501L386 574.501L386 575.501L385 575.501L385 574.501ZM385 409.5L384 409.5L384 408.5L385 408.5L385 409.5ZM614 409.5L604 415.274L604 403.727L614 409.5ZM384 574.501L384 409.5L386 409.5L386 574.501L384 574.501ZM385 408.5L605 408.5L605 410.5L385 410.5L385 408.5ZM385 575.501L295.5 575.501L295.5 573.501L385 573.501L385 575.501Z" fill="#1B6FB7"/>
<path d="M1 337.5L0 337.5L4.36942e-08 338.5L0.999999 338.5L1 337.5ZM486 337.5L476 331.726L476 343.273L486 337.5ZM0.999999 338.5L477 338.5L477 336.5L1 336.5L0.999999 338.5ZM2 337.5L2 257.499L1.97393e-08 257.499L0 337.5L2 337.5Z" fill="#1B6FB7"/>
<path d="M606 340.5L611.774 330.5H600.226L606 340.5ZM605 0V331.5H607V0H605Z" fill="#1B6FB7"/>
</svg>
