<?xml version="1.0" encoding="utf-8"?><svg viewBox="0 0 285 226" xmlns="http://www.w3.org/2000/svg" xmlns:xlink="http://www.w3.org/1999/xlink"><style>:root>svg{display:none}:root>svg:target{display:block}</style><svg fill="none" viewBox="0 0 14 14" id="blog-reset" xmlns="http://www.w3.org/2000/svg"><path d="M6.962 1.757V.107c0-.091.114-.14.192-.082l3.39 2.49a.105.105 0 010 .17l-3.39 2.49c-.078.058-.192.007-.192-.082V3.446a4.438 4.438 0 00-4.356 4.736c.147 2.2 1.939 3.983 4.138 4.124a4.443 4.443 0 004.667-3.72.844.844 0 01.837-.707c.512 0 .91.455.83.96a6.133 6.133 0 01-6.75 5.122C3.524 13.646 1.27 11.4.952 8.595a6.127 6.127 0 016.01-6.838z" fill="#fff"/></svg><svg fill="none" viewBox="0 0 24 24" id="bulbs-1" xmlns="http://www.w3.org/2000/svg"><path d="M24 12c0 6.627-5.373 12-12 12S0 18.627 0 12 5.373 0 12 0s12 5.373 12 12z" fill="#1B6FB7"/><path d="M15.477 17.28H13.34l.014-1.103h2.123c.732 0 1.341-.153 1.828-.457.488-.31.854-.741 1.097-1.294.249-.558.373-1.21.373-1.955v-.626c0-.586-.07-1.106-.21-1.56a3.16 3.16 0 00-.62-1.16 2.614 2.614 0 00-.998-.725c-.39-.164-.837-.246-1.343-.246h-2.306V7.043h2.306c.67 0 1.282.112 1.835.337.553.22 1.029.542 1.427.964.404.417.713.923.928 1.519.216.59.324 1.256.324 1.996v.612c0 .74-.108 1.409-.323 2.004a4.081 4.081 0 01-2.398 2.475c-.567.22-1.207.33-1.92.33zM14.064 7.043v10.238h-1.357V7.043h1.357zM3.84 8.707l7.418-1.988.249.928-7.419 1.987-.248-.927zM3.84 11.587L11.258 9.6l.249.927-7.419 1.988-.248-.928zM3.84 14.467l7.418-1.987.249.927-7.419 1.988-.248-.928zM3.84 17.348l7.418-1.988.249.927-7.419 1.988-.248-.927z" fill="#fff"/></svg><svg fill="none" viewBox="0 0 24 24" id="bulbs-10" xmlns="http://www.w3.org/2000/svg"><path d="M24 12c0 6.627-5.373 12-12 12S0 18.627 0 12 5.373 0 12 0s12 5.373 12 12z" fill="#1B6FB7"/><path d="M20.875 9.587a.366.366 0 00-.321-.224h-1.645a.366.366 0 00-.32.224 2.716 2.716 0 00-.095.337l-1.098-3.076A1.274 1.274 0 0016.2 6H7.8c-.533 0-1.013.34-1.194.848l-1.1 3.076a2.73 2.73 0 00-.093-.337.366.366 0 00-.321-.224H3.446a.366.366 0 00-.321.224c-.167.49-.167.771 0 1.262a.366.366 0 00.321.224h1.65l-.025.07a.852.852 0 00-.578.809v5.638c0 .226.182.41.406.41h2.04a.408.408 0 00.405-.41v-1.997h9.312v1.997c0 .226.182.41.405.41h2.04a.408.408 0 00.406-.41v-5.638a.853.853 0 00-.577-.81l-.025-.07.004.001h1.645a.366.366 0 00.321-.224c.167-.49.167-.771 0-1.262zM7.954 7.509h8.091l1.282 3.59H6.672l1.282-3.59zm.225 6.118H6.473a.667.667 0 01-.663-.671c0-.37.297-.67.663-.67h1.706c.367 0 .663.3.663.67 0 .37-.296.67-.663.67zm9.348 0H15.82a.667.667 0 01-.662-.671c0-.37.296-.67.662-.67h1.707c.366 0 .663.3.663.67 0 .37-.297.67-.663.67z" fill="#fff"/><circle cx="12.5" cy="5.5" r="1.5" fill="#F97830"/></svg><svg fill="none" viewBox="0 0 24 24" id="bulbs-11" xmlns="http://www.w3.org/2000/svg"><path d="M0 12c0 6.627 5.373 12 12 12s12-5.373 12-12S18.627 0 12 0 0 5.373 0 12z" fill="#1B6FB7"/><path d="M8.176 17.333h1.923l-.013-1.15h-1.91c-.658 0-1.206-.159-1.645-.476-.438-.322-.767-.772-.986-1.348-.224-.581-.336-1.26-.336-2.037v-.652c0-.61.064-1.152.19-1.626.127-.479.312-.882.557-1.209.244-.332.544-.583.898-.754a2.72 2.72 0 011.208-.257h2.075V6.667H8.062c-.603 0-1.153.117-1.65.351-.498.23-.926.564-1.285 1.004-.362.435-.64.962-.835 1.582-.194.616-.29 1.31-.29 2.081v.637c0 .772.096 1.468.29 2.088.194.616.475 1.14.841 1.575.363.435.802.77 1.316 1.004.51.23 1.086.344 1.727.344zM9.447 6.667v10.666h1.221V6.667h-1.22zM20 8h-8v.8h8V8zM20 10.667h-8v.8h8v-.8zM20 13.333h-8v.8h8v-.8zM20 16h-8v.8h8V16z" fill="#fff"/></svg><svg fill="none" viewBox="0 0 24 24" id="bulbs-12" xmlns="http://www.w3.org/2000/svg"><path d="M0 12c0 6.627 5.373 12 12 12s12-5.373 12-12S18.627 0 12 0 0 5.373 0 12z" fill="#1B6FB7"/><path d="M8.523 17.28h2.137l-.014-1.103H8.523c-.732 0-1.341-.153-1.828-.457a2.855 2.855 0 01-1.097-1.294c-.249-.558-.373-1.21-.373-1.955v-.626c0-.586.07-1.106.21-1.56.142-.46.348-.847.62-1.16.272-.32.604-.56.998-.725.39-.164.837-.246 1.343-.246h2.306V7.043H8.396c-.67 0-1.282.112-1.835.337a3.945 3.945 0 00-1.427.964 4.221 4.221 0 00-.929 1.519c-.215.59-.323 1.256-.323 1.996v.612c0 .74.108 1.409.323 2.004.216.59.528 1.095.936 1.512.403.417.89.738 1.462.963.567.22 1.207.33 1.92.33zM9.936 7.043v10.238h1.357V7.043H9.936zM20.16 8.707l-7.418-1.988-.249.928 7.419 1.987.248-.927z" fill="#fff"/><path d="M17 5.5c0 3-2 2.5-2 4.5s2 2 2 4.5c0 2-2 2.5-2 4.5" stroke="#fff"/><path d="M20.16 11.587L12.742 9.6l-.249.927 7.419 1.988.248-.928zM20.16 14.467l-7.418-1.987-.249.927 7.419 1.988.248-.928zM20.16 17.348l-7.418-1.988-.249.927 7.419 1.988.248-.927z" fill="#fff"/></svg><svg fill="none" viewBox="0 0 24 24" id="bulbs-13" xmlns="http://www.w3.org/2000/svg"><path d="M24 12c0 6.627-5.373 12-12 12S0 18.627 0 12 5.373 0 12 0s12 5.373 12 12z" fill="#1B6FB7"/><path d="M20.875 9.587a.366.366 0 00-.321-.224h-1.645a.366.366 0 00-.32.224 2.716 2.716 0 00-.095.337l-1.098-3.076A1.274 1.274 0 0016.2 6H7.8c-.533 0-1.013.34-1.194.848l-1.1 3.076a2.73 2.73 0 00-.093-.337.366.366 0 00-.321-.224H3.446a.366.366 0 00-.321.224c-.167.49-.167.771 0 1.262a.366.366 0 00.321.224h1.65l-.025.07a.852.852 0 00-.578.809v5.638c0 .226.182.41.406.41h2.04a.408.408 0 00.405-.41v-1.997h9.312v1.997c0 .226.182.41.405.41h2.04a.408.408 0 00.406-.41v-5.638a.853.853 0 00-.577-.81l-.025-.07.004.001h1.645a.366.366 0 00.321-.224c.167-.49.167-.771 0-1.262zM7.954 7.509h8.091l1.282 3.59H6.672l1.282-3.59zm.225 6.118H6.473a.667.667 0 01-.663-.671c0-.37.297-.67.663-.67h1.706c.367 0 .663.3.663.67 0 .37-.296.67-.663.67zm9.348 0H15.82a.667.667 0 01-.662-.671c0-.37.296-.67.662-.67h1.707c.366 0 .663.3.663.67 0 .37-.297.67-.663.67z" fill="#fff"/><ellipse cx="12" cy="15.5" rx="2" ry="1.5" fill="#F97830"/></svg><svg fill="none" viewBox="0 0 24 24" id="bulbs-14" xmlns="http://www.w3.org/2000/svg"><path d="M24 12c0 6.627-5.373 12-12 12S0 18.627 0 12 5.373 0 12 0s12 5.373 12 12z" fill="#1B6FB7"/><path d="M6 11.5l2-5 8 .5 2 4.5H6z" fill="#F97830"/><path d="M20.875 9.587a.366.366 0 00-.321-.224h-1.645a.366.366 0 00-.32.224 2.716 2.716 0 00-.095.337l-1.098-3.076A1.274 1.274 0 0016.2 6H7.8c-.533 0-1.013.34-1.194.848l-1.1 3.076a2.73 2.73 0 00-.093-.337.366.366 0 00-.321-.224H3.446a.366.366 0 00-.321.224c-.167.49-.167.771 0 1.262a.366.366 0 00.321.224h1.65l-.025.07a.852.852 0 00-.578.809v5.638c0 .226.182.41.406.41h2.04a.408.408 0 00.405-.41v-1.997h9.312v1.997c0 .226.182.41.405.41h2.04a.408.408 0 00.406-.41v-5.638a.853.853 0 00-.577-.81l-.025-.07.004.001h1.645a.366.366 0 00.321-.224c.167-.49.167-.771 0-1.262zM7.954 7.509h8.091l1.282 3.59H6.672l1.282-3.59zm.225 6.118H6.473a.667.667 0 01-.663-.671c0-.37.297-.67.663-.67h1.706c.367 0 .663.3.663.67 0 .37-.296.67-.663.67zm9.348 0H15.82a.667.667 0 01-.662-.671c0-.37.296-.67.662-.67h1.707c.366 0 .663.3.663.67 0 .37-.297.67-.663.67z" fill="#fff"/></svg><svg fill="none" viewBox="0 0 24 24" id="bulbs-15" xmlns="http://www.w3.org/2000/svg"><path d="M24 12c0 6.627-5.373 12-12 12S0 18.627 0 12 5.373 0 12 0s12 5.373 12 12z" fill="#1B6FB7"/><mask id="aha" style="mask-type:alpha" maskUnits="userSpaceOnUse" x="2" y="2" width="20" height="20"><path d="M22 12c0 5.523-4.477 10-10 10S2 17.523 2 12 6.477 2 12 2s10 4.477 10 10z" fill="#1B6FB7"/></mask><g mask="url(#aha)"><path d="M10.828 9.708l3.49-5.585L16.5 5l.612 6.104-6.283-1.396z" fill="#F97830"/><path d="M5.778 17.695H-4.611a4.25 4.25 0 00-8.5 0h-.944A.944.944 0 01-15 16.75v-5.194c0-.47.346-.869.81-.935l6.248-.893 4.017-4.91a.944.944 0 01.73-.346H7.668c.323 0 .623.165.797.438l2.296 3.608 2.732-4.097a.944.944 0 011.015-.393l1.889.472a.944.944 0 01-.458 1.833l-1.243-.31-2.43 3.644h3.902c.522 0 .944.423.944.944v6.14a.944.944 0 01-.944.944h-1.889a4.25 4.25 0 10-8.5 0zm-11.23-8.028H9.253L7.148 6.36h-9.895L-5.45 9.667zM-8.86 21a3.306 3.306 0 110-6.611 3.306 3.306 0 010 6.611zm0-1.889a1.417 1.417 0 100-2.833 1.417 1.417 0 000 2.833zm18.889 1.89a3.306 3.306 0 110-6.612 3.306 3.306 0 010 6.611zm0-1.89a1.417 1.417 0 100-2.833 1.417 1.417 0 000 2.833z" fill="#fff"/></g></svg><svg fill="none" viewBox="0 0 24 24" id="bulbs-16" xmlns="http://www.w3.org/2000/svg"><path d="M24 12c0 6.627-5.373 12-12 12S0 18.627 0 12 5.373 0 12 0s12 5.373 12 12z" fill="#1B6FB7"/><path d="M17 12H6l-2-1 2.5-2.5h7L17 12z" fill="#F97830"/><path fill-rule="evenodd" clip-rule="evenodd" d="M8.841 14.547c0 .793-.707 1.436-1.579 1.436s-1.578-.643-1.578-1.436c0-.792.706-1.435 1.578-1.435.872 0 1.58.643 1.58 1.435zM18.314 14.547c0 .793-.707 1.436-1.579 1.436s-1.579-.643-1.579-1.436c0-.792.707-1.435 1.579-1.435s1.579.643 1.579 1.435z" fill="#fff"/><path fill-rule="evenodd" clip-rule="evenodd" d="M10.223 10.958V8.805h2.704c.217 0 .414.072.553.215l2.13 1.938h-5.387zm-.789 0H4.441L6.573 9.02a.819.819 0 01.552-.215h2.309v2.153zm9.275 0h-1.638a.751.751 0 01-.552-.215L14.032 8.5a1.65 1.65 0 00-1.125-.413H7.125c-.414 0-.829.144-1.125.413l-2.447 2.243a.687.687 0 00-.237.52v1.849c0 .79.71 1.435 1.58 1.435h.196c0-1.094.967-1.974 2.171-1.974 1.204 0 2.171.88 2.171 1.974h5.13c0-1.094.968-1.974 2.172-1.974 1.203 0 2.17.88 2.17 1.974h.987c.434 0 .79-.323.79-.717v-1.077c0-.987-.889-1.795-1.974-1.795z" fill="#fff"/></svg><svg fill="none" viewBox="0 0 24 24" id="bulbs-2" xmlns="http://www.w3.org/2000/svg"><path d="M24 12c0 6.627-5.373 12-12 12S0 18.627 0 12 5.373 0 12 0s12 5.373 12 12z" fill="#1B6FB7"/><path d="M15.824 17.333h-1.923l.013-1.15h1.91c.658 0 1.206-.159 1.645-.476.438-.322.767-.772.986-1.348.224-.581.336-1.26.336-2.037v-.652a6.32 6.32 0 00-.19-1.626c-.127-.479-.312-.882-.557-1.209a2.4 2.4 0 00-.898-.754 2.72 2.72 0 00-1.208-.257h-2.075V6.667h2.075c.603 0 1.153.117 1.65.351.498.23.926.564 1.285 1.004.362.435.64.962.835 1.582.194.616.29 1.31.29 2.081v.637c0 .772-.096 1.468-.29 2.088a4.51 4.51 0 01-.841 1.575c-.363.435-.802.77-1.316 1.004-.51.23-1.086.344-1.727.344zM14.553 6.667v10.666h-1.221V6.667h1.22zM4 8h8v.8H4V8zM4 10.667h8v.8H4v-.8zM4 13.333h8v.8H4v-.8zM4 16h8v.8H4V16z" fill="#fff"/></svg><svg fill="none" viewBox="0 0 24 24" id="bulbs-3" xmlns="http://www.w3.org/2000/svg"><path d="M24 12c0 6.627-5.373 12-12 12S0 18.627 0 12 5.373 0 12 0s12 5.373 12 12z" fill="#1B6FB7"/><path d="M19.804 11.648h-2.378a.352.352 0 100 .704h2.378a.352.352 0 100-.704zM16.997 9.997l1.4-1.743a.352.352 0 10-.496-.497L16.5 9.5a.352.352 0 00.497.497zM16.997 14a.351.351 0 10-.497.497l1.401 1.745a.351.351 0 10.497-.497L16.997 14zM10.045 10.935h-1.09v1.055h1.09a.528.528 0 000-1.055z" fill="#fff"/><path d="M12.682 8H6.318A1.32 1.32 0 005 9.318v6.364A1.32 1.32 0 006.318 17h6.364A1.32 1.32 0 0014 15.682V9.318A1.32 1.32 0 0012.682 8zm-2.637 5.045h-1.09v1.846a.264.264 0 01-.264.263h-.527a.264.264 0 01-.264-.263v-4.746c0-.146.118-.264.264-.264h1.88c.873 0 1.583.71 1.583 1.582 0 .872-.71 1.582-1.582 1.582z" fill="#fff"/></svg><svg fill="none" viewBox="0 0 24 24" id="bulbs-4" xmlns="http://www.w3.org/2000/svg"><path d="M24 12c0 6.627-5.373 12-12 12S0 18.627 0 12 5.373 0 12 0s12 5.373 12 12z" fill="#1B6FB7"/><path d="M15.477 17.28H13.34l.014-1.103h2.123c.732 0 1.341-.153 1.828-.457.488-.31.854-.741 1.097-1.294.249-.558.373-1.21.373-1.955v-.626c0-.586-.07-1.106-.21-1.56a3.16 3.16 0 00-.62-1.16 2.614 2.614 0 00-.998-.725c-.39-.164-.837-.246-1.343-.246h-2.306V7.043h2.306c.67 0 1.282.112 1.835.337.553.22 1.029.542 1.427.964.404.417.713.923.928 1.519.216.59.324 1.256.324 1.996v.612c0 .74-.108 1.409-.323 2.004a4.081 4.081 0 01-2.398 2.475c-.567.22-1.207.33-1.92.33zM14.064 7.043v10.238h-1.357V7.043h1.357zM3.84 8.707l7.418-1.988.249.928-7.419 1.987-.248-.927zM3.84 11.587L11.258 9.6l.249.927-7.419 1.988-.248-.928zM3.84 14.467l7.418-1.987.249.927-7.419 1.988-.248-.928z" fill="#fff"/><path d="M9 5.5C9 8.5 7 8 7 10s2 2 2 4.5c0 2-2 2.5-2 4.5" stroke="#fff"/><path d="M3.84 17.348l7.418-1.988.249.927-7.419 1.988-.248-.927z" fill="#fff"/></svg><svg fill="none" viewBox="0 0 24 24" id="bulbs-5" xmlns="http://www.w3.org/2000/svg"><path d="M24 12c0 6.627-5.373 12-12 12S0 18.627 0 12 5.373 0 12 0s12 5.373 12 12z" fill="#1B6FB7"/><path d="M17.23 8.97l.001-.001a.274.274 0 01.29.033L21 11.786h0l-.063.078a.18.18 0 010 .272l-3.707-3.167zm0 0a.275.275 0 00-.154.246v1.466h-3.728c-.247 0-.448.2-.448.448v1.74c0 .247.2.448.448.448h3.728v1.466c0 .105.06.2.155.247V8.969zm.291 6.027l3.48-2.783-3.727 2.726c.06.03.132.021.184-.02l.063.078h0zm.103-1.953a.274.274 0 00-.274-.274h-3.902v-1.54h3.902a.274.274 0 00.274-.274v-1.17L20.39 12l-2.767 2.214v-1.17zM6.77 15.03h-.001a.274.274 0 01-.29-.032L3 12.214h0l.063-.078a.18.18 0 010-.272l3.707 3.167zm0 0a.275.275 0 00.154-.246v-1.466h3.728c.247 0 .448-.201.448-.448v-1.74c0-.247-.2-.448-.448-.448H6.924V9.216a.274.274 0 00-.155-.247v6.062zm-.291-6.028l-3.48 2.784 3.727-2.727a.174.174 0 00-.184.021l-.063-.078h0zm-.103 1.954c0 .151.123.274.274.274h3.902v1.54H6.65a.274.274 0 00-.274.274v1.17L3.61 12l2.767-2.214v1.17z" fill="#fff" stroke="#fff" stroke-width=".2"/></svg><svg fill="none" viewBox="0 0 24 24" id="bulbs-6" xmlns="http://www.w3.org/2000/svg"><path d="M24 12c0 6.627-5.373 12-12 12S0 18.627 0 12 5.373 0 12 0s12 5.373 12 12z" fill="#1B6FB7"/><path d="M15.824 17.333h-1.923l.013-1.15h1.91c.658 0 1.206-.159 1.645-.476.438-.322.767-.772.986-1.348.224-.581.336-1.26.336-2.037v-.652a6.32 6.32 0 00-.19-1.626c-.127-.479-.312-.882-.557-1.209a2.4 2.4 0 00-.898-.754 2.72 2.72 0 00-1.208-.257h-2.075V6.667h2.075c.603 0 1.153.117 1.65.351.498.23.926.564 1.285 1.004.362.435.64.962.835 1.582.194.616.29 1.31.29 2.081v.637c0 .772-.096 1.468-.29 2.088a4.51 4.51 0 01-.841 1.575c-.363.435-.802.77-1.316 1.004-.51.23-1.086.344-1.727.344zM14.553 6.667v10.666h-1.221V6.667h1.22zM4 8h8v.8H4V8zM4 10.667h8v.8H4v-.8zM4 13.333h8v.8H4v-.8zM4 16h8v.8H4V16z" fill="#fff"/></svg><svg fill="none" viewBox="0 0 24 24" id="bulbs-7" xmlns="http://www.w3.org/2000/svg"><path d="M24 12c0 6.627-5.373 12-12 12S0 18.627 0 12 5.373 0 12 0s12 5.373 12 12z" fill="#1B6FB7"/><path d="M20.875 9.587a.366.366 0 00-.321-.224h-1.645a.366.366 0 00-.32.224 2.716 2.716 0 00-.095.337l-1.098-3.076A1.274 1.274 0 0016.2 6H7.8c-.533 0-1.013.34-1.194.848l-1.1 3.076a2.73 2.73 0 00-.093-.337.366.366 0 00-.321-.224H3.446a.366.366 0 00-.321.224c-.167.49-.167.771 0 1.262a.366.366 0 00.321.224h1.65l-.025.07a.852.852 0 00-.578.809v5.638c0 .226.182.41.406.41h2.04a.408.408 0 00.405-.41v-1.997h9.312v1.997c0 .226.182.41.405.41h2.04a.408.408 0 00.406-.41v-5.638a.853.853 0 00-.577-.81l-.025-.07.004.001h1.645a.366.366 0 00.321-.224c.167-.49.167-.771 0-1.262zM7.954 7.509h8.091l1.282 3.59H6.672l1.282-3.59zm.225 6.118H6.473a.667.667 0 01-.663-.671c0-.37.297-.67.663-.67h1.706c.367 0 .663.3.663.67 0 .37-.296.67-.663.67zm9.348 0H15.82a.667.667 0 01-.662-.671c0-.37.296-.67.662-.67h1.707c.366 0 .663.3.663.67 0 .37-.297.67-.663.67z" fill="#fff"/><circle cx="19.5" cy="13.5" r="1.5" fill="#F97830"/></svg><svg fill="none" viewBox="0 0 24 24" id="bulbs-8" xmlns="http://www.w3.org/2000/svg"><path d="M24 12c0 6.627-5.373 12-12 12S0 18.627 0 12 5.373 0 12 0s12 5.373 12 12z" fill="#1B6FB7"/><path d="M17.23 8.97l.001-.001a.274.274 0 01.29.033L21 11.786h0l-.063.078a.18.18 0 010 .272l-3.707-3.167zm0 0a.275.275 0 00-.154.246v1.466h-3.728c-.247 0-.448.2-.448.448v1.74c0 .247.2.448.448.448h3.728v1.466c0 .105.06.2.155.247V8.969zm.291 6.027l3.48-2.783-3.727 2.726c.06.03.132.021.184-.02l.063.078h0zm.103-1.953a.274.274 0 00-.274-.274h-3.902v-1.54h3.902a.274.274 0 00.274-.274v-1.17L20.39 12l-2.767 2.214v-1.17zM6.77 15.03h-.001a.274.274 0 01-.29-.032L3 12.214h0l.063-.078a.18.18 0 010-.272l3.707 3.167zm0 0a.275.275 0 00.154-.246v-1.466h3.728c.247 0 .448-.201.448-.448v-1.74c0-.247-.2-.448-.448-.448H6.924V9.216a.274.274 0 00-.155-.247v6.062zm-.291-6.028l-3.48 2.784 3.727-2.727a.174.174 0 00-.184.021l-.063-.078h0zm-.103 1.954c0 .151.123.274.274.274h3.902v1.54H6.65a.274.274 0 00-.274.274v1.17L3.61 12l2.767-2.214v1.17z" fill="#fff" stroke="#fff" stroke-width=".2"/></svg><svg fill="none" viewBox="0 0 24 24" id="bulbs-9" xmlns="http://www.w3.org/2000/svg"><path d="M0 12c0 6.627 5.373 12 12 12s12-5.373 12-12S18.627 0 12 0 0 5.373 0 12z" fill="#1B6FB7"/><path d="M8.523 17.28h2.137l-.014-1.103H8.523c-.732 0-1.341-.153-1.828-.457a2.855 2.855 0 01-1.097-1.294c-.249-.558-.373-1.21-.373-1.955v-.626c0-.586.07-1.106.21-1.56.142-.46.348-.847.62-1.16.272-.32.604-.56.998-.725.39-.164.837-.246 1.343-.246h2.306V7.043H8.396c-.67 0-1.282.112-1.835.337a3.945 3.945 0 00-1.427.964 4.221 4.221 0 00-.929 1.519c-.215.59-.323 1.256-.323 1.996v.612c0 .74.108 1.409.323 2.004.216.59.528 1.095.936 1.512.403.417.89.738 1.462.963.567.22 1.207.33 1.92.33zM9.936 7.043v10.238h1.357V7.043H9.936zM20.16 8.707l-7.418-1.988-.249.928 7.419 1.987.248-.927zM20.16 11.587L12.742 9.6l-.249.927 7.419 1.988.248-.928zM20.16 14.467l-7.418-1.987-.249.927 7.419 1.988.248-.928zM20.16 17.348l-7.418-1.988-.249.927 7.419 1.988.248-.927z" fill="#fff"/></svg><svg fill="none" viewBox="0 0 18 36" id="index-blog-posts-img-arrow" xmlns="http://www.w3.org/2000/svg"><path d="M0 18L17.25.68v34.64L0 18z" fill="#1B6FB7"/></svg><svg fill="none" viewBox="0 0 50 21" id="index-browse-white-arrow" xmlns="http://www.w3.org/2000/svg"><path d="M26.156 20.18a2 2 0 01-2.312 0L1.547 4.383C-.043 3.255.754.75 2.703.75h44.594c1.95 0 2.747 2.505 1.156 3.632L26.156 20.18z" fill="#fff"/></svg><svg fill="none" viewBox="0 0 44 26" id="index-choose-decor-arrow" xmlns="http://www.w3.org/2000/svg"><path d="M25.273 24.165a5 5 0 01-6.546 0L1.827 9.53C-1.673 6.499.471.75 5.1.75h33.8c4.63 0 6.773 5.749 3.273 8.78l-16.9 14.635z" fill="#fff"/></svg><svg fill="none" viewBox="0 0 11 11" id="index-find-reset" xmlns="http://www.w3.org/2000/svg"><path d="M5.47 1.38V.085c0-.072.09-.11.151-.066l2.664 1.958a.082.082 0 010 .132L5.621 4.067c-.06.045-.15.004-.15-.065V2.708a3.487 3.487 0 00-3.422 3.721 3.502 3.502 0 003.25 3.24 3.49 3.49 0 003.668-2.923.663.663 0 01.657-.555c.402 0 .715.357.652.753a4.819 4.819 0 01-5.303 4.025A4.812 4.812 0 01.748 6.753 4.814 4.814 0 015.471 1.38z" fill="#fff"/></svg><svg fill="none" viewBox="0 0 20 20" id="index-find-search" xmlns="http://www.w3.org/2000/svg"><path d="M9.028.77C4.482.77.779 4.474.779 9.02c0 4.545 3.703 8.255 8.249 8.255 1.941 0 3.727-.68 5.138-1.81l3.436 3.434a.919.919 0 001.3-1.298l-3.436-3.436a8.214 8.214 0 001.812-5.145c0-4.546-3.705-8.248-8.25-8.248zm0 1.834a6.4 6.4 0 016.414 6.415 6.406 6.406 0 01-6.414 6.422 6.406 6.406 0 01-6.415-6.422 6.4 6.4 0 016.415-6.415z" fill="#fff"/></svg><svg fill="none" viewBox="0 0 15 17" id="index-find-triangle" xmlns="http://www.w3.org/2000/svg"><path d="M15 8.5L0 0v17l15-8.5z" fill="#fff"/></svg><svg fill="none" viewBox="0 0 9 7" id="index-find-triangle-down" xmlns="http://www.w3.org/2000/svg"><path d="M4.5 7L9 0H0l4.5 7z" fill="#fff"/></svg><svg fill="none" viewBox="0 0 50 21" id="index-footer-black-arrow" xmlns="http://www.w3.org/2000/svg"><path d="M26.156 20.18a2 2 0 01-2.312 0L1.547 4.383C-.043 3.255.754.75 2.703.75h44.594c1.95 0 2.747 2.505 1.156 3.632L26.156 20.18z" fill="#03080B"/></svg><svg fill="none" viewBox="0 0 81 72" id="index-footer-decor" xmlns="http://www.w3.org/2000/svg"><path d="M.663 0l79.674 71.5H.663V0z" fill="#1B6FB7"/></svg><svg fill="none" viewBox="0 0 10 16" id="index-footer-facebook" xmlns="http://www.w3.org/2000/svg"><path d="M3.277 8.998h-1.94c-.313 0-.411-.116-.411-.407V6.247c0-.31.117-.407.411-.407h1.94V4.135c0-.775.137-1.511.529-2.19.411-.697 1-1.162 1.744-1.433C6.04.337 6.53.26 7.058.26h1.92c.275 0 .392.116.392.387v2.21c0 .27-.117.387-.392.387-.529 0-1.058 0-1.587.02-.529 0-.803.251-.803.793-.02.582 0 1.144 0 1.744h2.273c.313 0 .43.117.43.427v2.344c0 .31-.097.407-.43.407H6.588v6.317c0 .329-.098.445-.45.445h-2.45c-.294 0-.411-.116-.411-.407V8.998z" fill="#000"/></svg><svg fill="none" viewBox="0 0 50 21" id="index-footer-grey-arrow" xmlns="http://www.w3.org/2000/svg"><path d="M26.156 20.18a2 2 0 01-2.312 0L1.547 4.383C-.043 3.255.754.75 2.703.75h44.594c1.95 0 2.747 2.505 1.156 3.632L26.156 20.18z" fill="#1C1C1C"/></svg><svg fill="none" viewBox="0 0 14 14" id="index-footer-instagram" xmlns="http://www.w3.org/2000/svg"><path d="M10.68 3.011a.308.308 0 10.001.616.308.308 0 000-.616zM7 4.273a2.73 2.73 0 00-2.727 2.726A2.73 2.73 0 007 9.725 2.73 2.73 0 009.726 7 2.73 2.73 0 007 4.273z" fill="#000"/><path d="M9.86.666H4.138A3.476 3.476 0 00.666 4.138V9.86a3.476 3.476 0 003.472 3.473H9.86a3.476 3.476 0 003.473-3.473V4.138A3.476 3.476 0 009.86.666zM7 10.474a3.478 3.478 0 01-3.475-3.475A3.478 3.478 0 017 3.525 3.478 3.478 0 0110.474 7a3.478 3.478 0 01-3.475 3.475zm3.681-6.101a1.057 1.057 0 010-2.111 1.057 1.057 0 010 2.11z" fill="#000"/></svg><svg fill="none" viewBox="0 0 50 21" id="index-footer-white-arrow" xmlns="http://www.w3.org/2000/svg"><path d="M26.156 20.18a2 2 0 01-2.312 0L1.547 4.383C-.043 3.255.754.75 2.703.75h44.594c1.95 0 2.747 2.505 1.156 3.632L26.156 20.18z" fill="#fff"/></svg><svg fill="none" viewBox="0 0 16 12" id="index-footer-youtube" xmlns="http://www.w3.org/2000/svg"><path d="M15.451 1.869C15.37 1.19 14.731.54 14.063.454a49.754 49.754 0 00-12.273 0C1.121.54.483 1.19.401 1.869a31.63 31.63 0 000 7.377c.082.678.72 1.328 1.39 1.415 4.074.506 8.196.506 12.272 0 .668-.086 1.307-.737 1.388-1.415a31.625 31.625 0 000-7.377zM6.636 8.138v-5.16l3.87 2.58-3.87 2.58z" fill="#000"/></svg><svg fill="none" viewBox="0 0 126 28" id="index-logo" xmlns="http://www.w3.org/2000/svg"><path d="M8.344 27.384c-2.816 0-4.821-.736-6.016-2.208-1.173-1.493-1.76-3.637-1.76-6.432V9.4c0-2.859.587-5.013 1.76-6.464C3.501 1.464 5.507.728 8.344.728c2.71 0 4.63.65 5.76 1.952 1.13 1.301 1.696 3.147 1.696 5.536v2.24h-5.6V7.864c0-1.003-.107-1.77-.32-2.304-.213-.533-.725-.8-1.536-.8-.81 0-1.344.288-1.6.864-.256.555-.384 1.333-.384 2.336v12.192c0 1.024.128 1.813.384 2.368.277.533.81.8 1.6.8s1.29-.267 1.504-.8c.235-.555.352-1.344.352-2.368v-2.72h5.6v2.24c0 2.432-.565 4.33-1.696 5.696-1.13 1.344-3.05 2.016-5.76 2.016zm14.127-.064c-.896 0-1.674-.213-2.336-.64a4.502 4.502 0 01-1.472-1.696 5.205 5.205 0 01-.48-2.176c0-1.43.363-2.603 1.088-3.52a7.802 7.802 0 012.592-2.144c1.024-.512 2.336-1.045 3.936-1.6v-1.856c0-.533-.085-.939-.256-1.216-.15-.277-.426-.416-.832-.416-.405 0-.693.128-.864.384-.17.256-.266.619-.288 1.088l-.128 1.344-4.864-.192c.086-2.219.672-3.85 1.76-4.896 1.088-1.067 2.71-1.6 4.864-1.6 1.814 0 3.2.512 4.16 1.536.96 1.003 1.44 2.347 1.44 4.032v8.64c0 1.877.107 3.413.32 4.608H26.44c-.192-1.43-.33-2.304-.416-2.624-.256.853-.682 1.557-1.28 2.112-.597.555-1.354.832-2.272.832zm1.856-3.52c.534 0 1.024-.31 1.472-.928v-5.056c-.96.555-1.685 1.141-2.176 1.76-.49.597-.736 1.333-.736 2.208 0 .619.128 1.11.384 1.472.256.363.608.544 1.056.544zm9.619-15.296h5.216v3.072c.64-1.13 1.259-1.963 1.856-2.496a3.068 3.068 0 012.112-.8c.299 0 .565.032.8.096v5.184c-.64-.256-1.205-.384-1.696-.384-1.13 0-2.155.597-3.072 1.792V27h-5.216V8.504zM54.608 1.08h6.752c1.685 0 3.114.181 4.287.544a5.232 5.232 0 012.88 2.016c.726 1.003 1.088 2.41 1.088 4.224 0 1.536-.33 2.73-.991 3.584-.662.853-1.6 1.397-2.816 1.632 1.493.192 2.634.821 3.423 1.888.79 1.067 1.184 2.517 1.184 4.352 0 5.12-2.613 7.68-7.84 7.68h-7.968V1.08zm6.848 10.368c1.215 0 2.037-.277 2.463-.832.449-.555.672-1.419.672-2.592 0-1.024-.277-1.792-.831-2.304-.555-.533-1.366-.8-2.432-.8h-.992v6.528h1.12zM61.55 23c1.216 0 2.07-.299 2.56-.896.513-.619.768-1.579.768-2.88 0-1.472-.255-2.507-.767-3.104-.491-.597-1.355-.896-2.592-.896h-1.184V23h1.215zm14.845 4.32c-1.11 0-1.963-.395-2.56-1.184-.597-.81-.896-1.856-.896-3.136V8.504h5.216v13.888c0 .47.085.821.256 1.056.17.235.448.352.832.352.341 0 .853-.192 1.536-.576V8.504h5.184V27H80.78v-1.696c-1.45 1.344-2.912 2.016-4.384 2.016zM89.481 1.08h5.184V27h-5.184V1.08zm17.741 26.24c-1.322 0-2.645-.576-3.968-1.728V27h-5.216V1.08h5.216v8.768a6.589 6.589 0 011.984-1.248c.704-.277 1.387-.416 2.048-.416 1.344 0 2.336.501 2.976 1.504.662 1.003.992 2.315.992 3.936v7.968c0 1.77-.352 3.168-1.056 4.192-.704 1.024-1.696 1.536-2.976 1.536zm-2.528-3.36c.47 0 .811-.192 1.024-.576.214-.384.32-.885.32-1.504v-8.64c0-.576-.106-1.035-.32-1.376-.192-.363-.512-.544-.96-.544-.49 0-.992.203-1.504.608v11.52c.47.341.95.512 1.44.512zm15.228 3.36c-1.643 0-3.008-.363-4.096-1.088-1.067-.747-1.931-1.93-2.592-3.552l3.552-1.568c.341.853.736 1.515 1.184 1.984.469.47.981.704 1.536.704.81 0 1.216-.32 1.216-.96 0-.47-.16-.885-.48-1.248-.32-.384-1.014-1.013-2.08-1.888l-1.344-1.12c-1.11-.939-1.92-1.792-2.432-2.56-.491-.768-.736-1.685-.736-2.752 0-.981.256-1.856.768-2.624a5.4 5.4 0 012.112-1.792 6.086 6.086 0 012.816-.672c1.514 0 2.773.416 3.776 1.248 1.024.81 1.749 1.984 2.176 3.52l-3.36 1.536a5.24 5.24 0 00-.992-1.824c-.448-.555-.939-.832-1.472-.832-.342 0-.619.096-.832.288-.192.192-.288.448-.288.768 0 .384.202.8.608 1.248.426.448 1.088 1.035 1.984 1.76l1.312 1.152c1.066.896 1.888 1.739 2.464 2.528.576.768.864 1.675.864 2.72 0 1.045-.267 1.952-.8 2.72-.512.747-1.206 1.323-2.08 1.728a6.71 6.71 0 01-2.784.576z" fill="#000"/></svg><svg fill="none" viewBox="0 0 9 6" id="index-menu-arrow" xmlns="http://www.w3.org/2000/svg"><path d="M4.892 5.83L8.942.497A.26.26 0 008.94.165.496.496 0 008.55 0H.45a.496.496 0 00-.389.165A.273.273 0 000 .333C0 .39.019.446.058.497l4.05 5.333c.08.105.23.17.392.17a.495.495 0 00.392-.17z" fill="#1B6FB7"/></svg><svg fill="none" viewBox="0 0 285 226" id="index-models-bg" xmlns="http://www.w3.org/2000/svg"><mask id="bha" style="mask-type:alpha" maskUnits="userSpaceOnUse" x="0" y="20" width="262" height="180"><rect y="20" width="262" height="180" rx="15" fill="#fff"/></mask><g mask="url(#bha)"><path opacity=".4" d="M299.085-123H381L231.915 279H150l149.085-402z" fill="#EBEBEB"/><path opacity=".4" d="M217.085-123H299L149.915 279H68l149.085-402z" fill="#F5F5F5"/></g></svg><svg fill="none" viewBox="0 0 152 153" id="index-top-decor-1" xmlns="http://www.w3.org/2000/svg"><path d="M152 2H28C13.64 2 2 13.64 2 28v125" stroke="url(#bipaint0_linear_61_12286)" stroke-width="4"/><defs><linearGradient id="bipaint0_linear_61_12286" x1="14.015" y1="6.012" x2="67.985" y2="54.425" gradientUnits="userSpaceOnUse"><stop stop-color="#1B6FB7"/><stop offset="1" stop-color="#1B6FB7" stop-opacity="0"/></linearGradient></defs></svg></svg>