<?xml version="1.0" encoding="utf-8"?><svg viewBox="0 0 285 226" xmlns="http://www.w3.org/2000/svg" xmlns:xlink="http://www.w3.org/1999/xlink"><style>:root>svg{display:none}:root>svg:target{display:block}</style><svg fill="none" viewBox="0 0 13 13" id="ford-ponts-circle" xmlns="http://www.w3.org/2000/svg"><circle cx="6.5" cy="6.5" r="6.5" fill="#1B6FB7"/></svg><svg fill="none" viewBox="0 0 18 36" id="index-blog-posts-img-arrow" xmlns="http://www.w3.org/2000/svg"><path d="M0 18L17.25.68v34.64L0 18z" fill="#1B6FB7"/></svg><svg fill="none" viewBox="0 0 50 21" id="index-browse-white-arrow" xmlns="http://www.w3.org/2000/svg"><path d="M26.156 20.18a2 2 0 01-2.312 0L1.547 4.383C-.043 3.255.754.75 2.703.75h44.594c1.95 0 2.747 2.505 1.156 3.632L26.156 20.18z" fill="#fff"/></svg><svg fill="none" viewBox="0 0 44 26" id="index-choose-decor-arrow" xmlns="http://www.w3.org/2000/svg"><path d="M25.273 24.165a5 5 0 01-6.546 0L1.827 9.53C-1.673 6.499.471.75 5.1.75h33.8c4.63 0 6.773 5.749 3.273 8.78l-16.9 14.635z" fill="#fff"/></svg><svg fill="none" viewBox="0 0 11 11" id="index-find-reset" xmlns="http://www.w3.org/2000/svg"><path d="M5.47 1.38V.085c0-.072.09-.11.151-.066l2.664 1.958a.082.082 0 010 .132L5.621 4.067c-.06.045-.15.004-.15-.065V2.708a3.487 3.487 0 00-3.422 3.721 3.502 3.502 0 003.25 3.24 3.49 3.49 0 003.668-2.923.663.663 0 01.657-.555c.402 0 .715.357.652.753a4.819 4.819 0 01-5.303 4.025A4.812 4.812 0 01.748 6.753 4.814 4.814 0 015.471 1.38z" fill="#fff"/></svg><svg fill="none" viewBox="0 0 20 20" id="index-find-search" xmlns="http://www.w3.org/2000/svg"><path d="M9.028.77C4.482.77.779 4.474.779 9.02c0 4.545 3.703 8.255 8.249 8.255 1.941 0 3.727-.68 5.138-1.81l3.436 3.434a.919.919 0 001.3-1.298l-3.436-3.436a8.214 8.214 0 001.812-5.145c0-4.546-3.705-8.248-8.25-8.248zm0 1.834a6.4 6.4 0 016.414 6.415 6.406 6.406 0 01-6.414 6.422 6.406 6.406 0 01-6.415-6.422 6.4 6.4 0 016.415-6.415z" fill="#fff"/></svg><svg fill="none" viewBox="0 0 15 17" id="index-find-triangle" xmlns="http://www.w3.org/2000/svg"><path d="M15 8.5L0 0v17l15-8.5z" fill="#fff"/></svg><svg fill="none" viewBox="0 0 9 7" id="index-find-triangle-down" xmlns="http://www.w3.org/2000/svg"><path d="M4.5 7L9 0H0l4.5 7z" fill="#fff"/></svg><svg fill="none" viewBox="0 0 50 21" id="index-footer-black-arrow" xmlns="http://www.w3.org/2000/svg"><path d="M26.156 20.18a2 2 0 01-2.312 0L1.547 4.383C-.043 3.255.754.75 2.703.75h44.594c1.95 0 2.747 2.505 1.156 3.632L26.156 20.18z" fill="#03080B"/></svg><svg fill="none" viewBox="0 0 81 72" id="index-footer-decor" xmlns="http://www.w3.org/2000/svg"><path d="M.663 0l79.674 71.5H.663V0z" fill="#1B6FB7"/></svg><svg fill="none" viewBox="0 0 10 16" id="index-footer-facebook" xmlns="http://www.w3.org/2000/svg"><path d="M3.277 8.998h-1.94c-.313 0-.411-.116-.411-.407V6.247c0-.31.117-.407.411-.407h1.94V4.135c0-.775.137-1.511.529-2.19.411-.697 1-1.162 1.744-1.433C6.04.337 6.53.26 7.058.26h1.92c.275 0 .392.116.392.387v2.21c0 .27-.117.387-.392.387-.529 0-1.058 0-1.587.02-.529 0-.803.251-.803.793-.02.582 0 1.144 0 1.744h2.273c.313 0 .43.117.43.427v2.344c0 .31-.097.407-.43.407H6.588v6.317c0 .329-.098.445-.45.445h-2.45c-.294 0-.411-.116-.411-.407V8.998z" fill="#000"/></svg><svg fill="none" viewBox="0 0 50 21" id="index-footer-grey-arrow" xmlns="http://www.w3.org/2000/svg"><path d="M26.156 20.18a2 2 0 01-2.312 0L1.547 4.383C-.043 3.255.754.75 2.703.75h44.594c1.95 0 2.747 2.505 1.156 3.632L26.156 20.18z" fill="#1C1C1C"/></svg><svg fill="none" viewBox="0 0 14 14" id="index-footer-instagram" xmlns="http://www.w3.org/2000/svg"><path d="M10.68 3.011a.308.308 0 10.001.616.308.308 0 000-.616zM7 4.273a2.73 2.73 0 00-2.727 2.726A2.73 2.73 0 007 9.725 2.73 2.73 0 009.726 7 2.73 2.73 0 007 4.273z" fill="#000"/><path d="M9.86.666H4.138A3.476 3.476 0 00.666 4.138V9.86a3.476 3.476 0 003.472 3.473H9.86a3.476 3.476 0 003.473-3.473V4.138A3.476 3.476 0 009.86.666zM7 10.474a3.478 3.478 0 01-3.475-3.475A3.478 3.478 0 017 3.525 3.478 3.478 0 0110.474 7a3.478 3.478 0 01-3.475 3.475zm3.681-6.101a1.057 1.057 0 010-2.111 1.057 1.057 0 010 2.11z" fill="#000"/></svg><svg fill="none" viewBox="0 0 50 21" id="index-footer-white-arrow" xmlns="http://www.w3.org/2000/svg"><path d="M26.156 20.18a2 2 0 01-2.312 0L1.547 4.383C-.043 3.255.754.75 2.703.75h44.594c1.95 0 2.747 2.505 1.156 3.632L26.156 20.18z" fill="#fff"/></svg><svg fill="none" viewBox="0 0 16 12" id="index-footer-youtube" xmlns="http://www.w3.org/2000/svg"><path d="M15.451 1.869C15.37 1.19 14.731.54 14.063.454a49.754 49.754 0 00-12.273 0C1.121.54.483 1.19.401 1.869a31.63 31.63 0 000 7.377c.082.678.72 1.328 1.39 1.415 4.074.506 8.196.506 12.272 0 .668-.086 1.307-.737 1.388-1.415a31.625 31.625 0 000-7.377zM6.636 8.138v-5.16l3.87 2.58-3.87 2.58z" fill="#000"/></svg><svg fill="none" viewBox="0 0 126 28" id="index-logo" xmlns="http://www.w3.org/2000/svg"><path d="M8.344 27.384c-2.816 0-4.821-.736-6.016-2.208-1.173-1.493-1.76-3.637-1.76-6.432V9.4c0-2.859.587-5.013 1.76-6.464C3.501 1.464 5.507.728 8.344.728c2.71 0 4.63.65 5.76 1.952 1.13 1.301 1.696 3.147 1.696 5.536v2.24h-5.6V7.864c0-1.003-.107-1.77-.32-2.304-.213-.533-.725-.8-1.536-.8-.81 0-1.344.288-1.6.864-.256.555-.384 1.333-.384 2.336v12.192c0 1.024.128 1.813.384 2.368.277.533.81.8 1.6.8s1.29-.267 1.504-.8c.235-.555.352-1.344.352-2.368v-2.72h5.6v2.24c0 2.432-.565 4.33-1.696 5.696-1.13 1.344-3.05 2.016-5.76 2.016zm14.127-.064c-.896 0-1.674-.213-2.336-.64a4.502 4.502 0 01-1.472-1.696 5.205 5.205 0 01-.48-2.176c0-1.43.363-2.603 1.088-3.52a7.802 7.802 0 012.592-2.144c1.024-.512 2.336-1.045 3.936-1.6v-1.856c0-.533-.085-.939-.256-1.216-.15-.277-.426-.416-.832-.416-.405 0-.693.128-.864.384-.17.256-.266.619-.288 1.088l-.128 1.344-4.864-.192c.086-2.219.672-3.85 1.76-4.896 1.088-1.067 2.71-1.6 4.864-1.6 1.814 0 3.2.512 4.16 1.536.96 1.003 1.44 2.347 1.44 4.032v8.64c0 1.877.107 3.413.32 4.608H26.44c-.192-1.43-.33-2.304-.416-2.624-.256.853-.682 1.557-1.28 2.112-.597.555-1.354.832-2.272.832zm1.856-3.52c.534 0 1.024-.31 1.472-.928v-5.056c-.96.555-1.685 1.141-2.176 1.76-.49.597-.736 1.333-.736 2.208 0 .619.128 1.11.384 1.472.256.363.608.544 1.056.544zm9.619-15.296h5.216v3.072c.64-1.13 1.259-1.963 1.856-2.496a3.068 3.068 0 012.112-.8c.299 0 .565.032.8.096v5.184c-.64-.256-1.205-.384-1.696-.384-1.13 0-2.155.597-3.072 1.792V27h-5.216V8.504zM54.608 1.08h6.752c1.685 0 3.114.181 4.287.544a5.232 5.232 0 012.88 2.016c.726 1.003 1.088 2.41 1.088 4.224 0 1.536-.33 2.73-.991 3.584-.662.853-1.6 1.397-2.816 1.632 1.493.192 2.634.821 3.423 1.888.79 1.067 1.184 2.517 1.184 4.352 0 5.12-2.613 7.68-7.84 7.68h-7.968V1.08zm6.848 10.368c1.215 0 2.037-.277 2.463-.832.449-.555.672-1.419.672-2.592 0-1.024-.277-1.792-.831-2.304-.555-.533-1.366-.8-2.432-.8h-.992v6.528h1.12zM61.55 23c1.216 0 2.07-.299 2.56-.896.513-.619.768-1.579.768-2.88 0-1.472-.255-2.507-.767-3.104-.491-.597-1.355-.896-2.592-.896h-1.184V23h1.215zm14.845 4.32c-1.11 0-1.963-.395-2.56-1.184-.597-.81-.896-1.856-.896-3.136V8.504h5.216v13.888c0 .47.085.821.256 1.056.17.235.448.352.832.352.341 0 .853-.192 1.536-.576V8.504h5.184V27H80.78v-1.696c-1.45 1.344-2.912 2.016-4.384 2.016zM89.481 1.08h5.184V27h-5.184V1.08zm17.741 26.24c-1.322 0-2.645-.576-3.968-1.728V27h-5.216V1.08h5.216v8.768a6.589 6.589 0 011.984-1.248c.704-.277 1.387-.416 2.048-.416 1.344 0 2.336.501 2.976 1.504.662 1.003.992 2.315.992 3.936v7.968c0 1.77-.352 3.168-1.056 4.192-.704 1.024-1.696 1.536-2.976 1.536zm-2.528-3.36c.47 0 .811-.192 1.024-.576.214-.384.32-.885.32-1.504v-8.64c0-.576-.106-1.035-.32-1.376-.192-.363-.512-.544-.96-.544-.49 0-.992.203-1.504.608v11.52c.47.341.95.512 1.44.512zm15.228 3.36c-1.643 0-3.008-.363-4.096-1.088-1.067-.747-1.931-1.93-2.592-3.552l3.552-1.568c.341.853.736 1.515 1.184 1.984.469.47.981.704 1.536.704.81 0 1.216-.32 1.216-.96 0-.47-.16-.885-.48-1.248-.32-.384-1.014-1.013-2.08-1.888l-1.344-1.12c-1.11-.939-1.92-1.792-2.432-2.56-.491-.768-.736-1.685-.736-2.752 0-.981.256-1.856.768-2.624a5.4 5.4 0 012.112-1.792 6.086 6.086 0 012.816-.672c1.514 0 2.773.416 3.776 1.248 1.024.81 1.749 1.984 2.176 3.52l-3.36 1.536a5.24 5.24 0 00-.992-1.824c-.448-.555-.939-.832-1.472-.832-.342 0-.619.096-.832.288-.192.192-.288.448-.288.768 0 .384.202.8.608 1.248.426.448 1.088 1.035 1.984 1.76l1.312 1.152c1.066.896 1.888 1.739 2.464 2.528.576.768.864 1.675.864 2.72 0 1.045-.267 1.952-.8 2.72-.512.747-1.206 1.323-2.08 1.728a6.71 6.71 0 01-2.784.576z" fill="#000"/></svg><svg fill="none" viewBox="0 0 9 6" id="index-menu-arrow" xmlns="http://www.w3.org/2000/svg"><path d="M4.892 5.83L8.942.497A.26.26 0 008.94.165.496.496 0 008.55 0H.45a.496.496 0 00-.389.165A.273.273 0 000 .333C0 .39.019.446.058.497l4.05 5.333c.08.105.23.17.392.17a.495.495 0 00.392-.17z" fill="#1B6FB7"/></svg><svg fill="none" viewBox="0 0 285 226" id="index-models-bg" xmlns="http://www.w3.org/2000/svg"><mask id="ra" style="mask-type:alpha" maskUnits="userSpaceOnUse" x="0" y="20" width="262" height="180"><rect y="20" width="262" height="180" rx="15" fill="#fff"/></mask><g mask="url(#ra)"><path opacity=".4" d="M299.085-123H381L231.915 279H150l149.085-402z" fill="#EBEBEB"/><path opacity=".4" d="M217.085-123H299L149.915 279H68l149.085-402z" fill="#F5F5F5"/></g></svg><svg fill="none" viewBox="0 0 152 153" id="index-top-decor-1" xmlns="http://www.w3.org/2000/svg"><path d="M152 2H28C13.64 2 2 13.64 2 28v125" stroke="url(#spaint0_linear_61_12286)" stroke-width="4"/><defs><linearGradient id="spaint0_linear_61_12286" x1="14.015" y1="6.012" x2="67.985" y2="54.425" gradientUnits="userSpaceOnUse"><stop stop-color="#1B6FB7"/><stop offset="1" stop-color="#1B6FB7" stop-opacity="0"/></linearGradient></defs></svg></svg>